STARTFONT 2.1
COMMENT $Xorg: $
COMMENT ISO10646-1 extension by Markus Kuhn <mkuhn@acm.org>, 2001-03-20
COMMENT  (c) Copyright Bigelow & Holmes 1986, 1985. Lucida is a registered
COMMENT  trademark of Bigelow & Holmes. See LEGAL NOTICE file for terms 
COMMENT  of the license. 
FONT -B&H-LucidaBright-Medium-R-Normal--17-120-100-100-P-96-ISO10646-1
SIZE 12 100 100
FONTBOUNDINGBOX 27 24 -10 -6
STARTPROPERTIES 22
COMMENT Begin LogicalFontDescription
FONTNAME_REGISTRY ""
FOUNDRY "B&H"
FAMILY_NAME "LucidaBright"
WEIGHT_NAME "Medium"
SLANT "R"
SETWIDTH_NAME "Normal"
ADD_STYLE_NAME ""
PIXEL_SIZE 17
POINT_SIZE 120
RESOLUTION_X 100
RESOLUTION_Y 100
SPACING "P"
AVERAGE_WIDTH 96
CHARSET_REGISTRY "ISO10646"
CHARSET_ENCODING "1"
COMMENT END LogicalFontDescription
FONT_ASCENT 15
FONT_DESCENT 4
DEFAULT_CHAR 0
COPYRIGHT "Copyright Bigelow & Holmes 1986, 1985."
FACE_NAME "Lucida Bright"
X_HEIGHT 9
CAP_HEIGHT 13
ENDPROPERTIES
CHARS 756
STARTCHAR char0
ENCODING 0
SWIDTH 771 0
DWIDTH 13 0
BBX 13 13 0 0
BITMAP
AAA8
0000
8008
0000
8008
0000
8008
0000
8008
0000
8008
0000
AAA8
ENDCHAR
STARTCHAR space
ENCODING 32
SWIDTH 333 0
DWIDTH 5 0
BBX 1 1 0 0
BITMAP
00
ENDCHAR
STARTCHAR exclam
ENCODING 33
SWIDTH 265 0
DWIDTH 4 0
BBX 2 13 3 0
BITMAP
40
40
40
40
40
40
80
80
80
80
00
00
40
ENDCHAR
STARTCHAR quotedbl
ENCODING 34
SWIDTH 386 0
DWIDTH 7 0
BBX 5 4 1 9
BITMAP
88
88
50
50
ENDCHAR
STARTCHAR numbersign
ENCODING 35
SWIDTH 608 0
DWIDTH 10 0
BBX 10 13 0 0
BITMAP
0980
0900
0900
0900
7FC0
1200
1200
1200
FF80
2400
2400
2400
6400
ENDCHAR
STARTCHAR dollar
ENCODING 36
SWIDTH 608 0
DWIDTH 10 0
BBX 7 14 2 -1
BITMAP
1E
F2
92
90
90
70
18
14
12
12
92
94
F8
10
ENDCHAR
STARTCHAR percent
ENCODING 37
SWIDTH 675 0
DWIDTH 11 0
BBX 11 13 0 0
BITMAP
7060
C840
8880
8900
8B00
7200
05C0
0B20
1A20
1220
2220
4220
C1C0
ENDCHAR
STARTCHAR ampersand
ENCODING 38
SWIDTH 690 0
DWIDTH 12 0
BBX 12 13 0 0
BITMAP
1E00
3300
2100
2100
3200
2C00
4CF0
8420
8220
8120
C0C0
61C0
3EF0
ENDCHAR
STARTCHAR quotesingle
ENCODING 39
SWIDTH 241 0
DWIDTH 4 0
BBX 3 5 1 8
BITMAP
E0
E0
E0
40
40
ENDCHAR
STARTCHAR parenleft
ENCODING 40
SWIDTH 316 0
DWIDTH 5 0
BBX 3 16 1 -3
BITMAP
20
40
40
80
80
80
80
80
80
80
80
80
80
40
40
20
ENDCHAR
STARTCHAR parenright
ENCODING 41
SWIDTH 316 0
DWIDTH 5 0
BBX 3 16 1 -3
BITMAP
80
80
40
20
20
20
20
20
20
20
20
20
20
40
80
80
ENDCHAR
STARTCHAR asterisk
ENCODING 42
SWIDTH 470 0
DWIDTH 8 0
BBX 7 5 1 8
BITMAP
10
D2
2C
28
44
ENDCHAR
STARTCHAR plus
ENCODING 43
SWIDTH 608 0
DWIDTH 10 0
BBX 9 11 1 0
BITMAP
0800
0800
0800
0800
0800
FF80
0800
0800
0800
0800
0800
ENDCHAR
STARTCHAR comma
ENCODING 44
SWIDTH 265 0
DWIDTH 4 0
BBX 2 5 1 -3
BITMAP
C0
C0
40
40
80
ENDCHAR
STARTCHAR hyphen
ENCODING 45
SWIDTH 325 0
DWIDTH 6 0
BBX 4 1 1 5
BITMAP
F0
ENDCHAR
STARTCHAR period
ENCODING 46
SWIDTH 265 0
DWIDTH 4 0
BBX 2 1 1 0
BITMAP
C0
ENDCHAR
STARTCHAR slash
ENCODING 47
SWIDTH 512 0
DWIDTH 9 0
BBX 9 16 0 -3
BITMAP
0080
0100
0100
0200
0200
0400
0400
0800
0800
1000
1000
2000
2000
4000
4000
8000
ENDCHAR
STARTCHAR zero
ENCODING 48
SWIDTH 608 0
DWIDTH 10 0
BBX 9 13 1 0
BITMAP
3E00
4100
4100
8080
8080
8080
8080
8080
8080
8080
4100
4100
3E00
ENDCHAR
STARTCHAR one
ENCODING 49
SWIDTH 608 0
DWIDTH 10 0
BBX 5 13 3 0
BITMAP
E0
20
20
20
20
20
20
20
20
20
20
20
F8
ENDCHAR
STARTCHAR two
ENCODING 50
SWIDTH 608 0
DWIDTH 10 0
BBX 7 13 2 0
BITMAP
78
84
82
02
02
06
0C
18
30
60
40
80
FE
ENDCHAR
STARTCHAR three
ENCODING 51
SWIDTH 608 0
DWIDTH 10 0
BBX 7 13 2 0
BITMAP
F8
86
82
02
02
04
7C
06
02
02
82
C4
F8
ENDCHAR
STARTCHAR four
ENCODING 52
SWIDTH 608 0
DWIDTH 10 0
BBX 9 13 0 0
BITMAP
0200
0600
0A00
1A00
1200
2200
4200
C200
FF80
0200
0200
0200
0F80
ENDCHAR
STARTCHAR five
ENCODING 53
SWIDTH 608 0
DWIDTH 10 0
BBX 6 13 2 0
BITMAP
FC
80
80
80
F0
18
04
04
04
04
84
88
F0
ENDCHAR
STARTCHAR six
ENCODING 54
SWIDTH 608 0
DWIDTH 10 0
BBX 8 13 1 0
BITMAP
1F
23
41
80
80
BC
C2
81
81
81
41
62
3C
ENDCHAR
STARTCHAR seven
ENCODING 55
SWIDTH 608 0
DWIDTH 10 0
BBX 8 13 2 0
BITMAP
FF
03
02
06
04
08
18
10
30
20
20
40
40
ENDCHAR
STARTCHAR eight
ENCODING 56
SWIDTH 608 0
DWIDTH 10 0
BBX 8 13 1 0
BITMAP
3C
C3
81
81
C1
7E
4C
82
81
81
81
42
3C
ENDCHAR
STARTCHAR nine
ENCODING 57
SWIDTH 608 0
DWIDTH 10 0
BBX 8 13 1 0
BITMAP
3C
46
82
81
81
81
43
3D
01
01
82
C4
F8
ENDCHAR
STARTCHAR colon
ENCODING 58
SWIDTH 265 0
DWIDTH 4 0
BBX 1 9 2 0
BITMAP
80
00
00
00
00
00
00
00
80
ENDCHAR
STARTCHAR semicolon
ENCODING 59
SWIDTH 265 0
DWIDTH 4 0
BBX 1 12 2 -3
BITMAP
80
00
00
00
00
00
00
80
80
80
80
80
ENDCHAR
STARTCHAR less
ENCODING 60
SWIDTH 608 0
DWIDTH 10 0
BBX 10 11 0 0
BITMAP
0040
0180
0600
0C00
3000
C000
3000
0C00
0700
0180
0040
ENDCHAR
STARTCHAR equal
ENCODING 61
SWIDTH 608 0
DWIDTH 10 0
BBX 10 4 0 3
BITMAP
FFC0
0000
0000
FFC0
ENDCHAR
STARTCHAR greater
ENCODING 62
SWIDTH 608 0
DWIDTH 10 0
BBX 10 11 0 0
BITMAP
8000
6000
3800
0C00
0300
00C0
0300
0C00
1800
6000
8000
ENDCHAR
STARTCHAR question
ENCODING 63
SWIDTH 480 0
DWIDTH 8 0
BBX 6 13 1 0
BITMAP
F8
8C
84
04
08
08
10
20
20
20
00
00
20
ENDCHAR
STARTCHAR at
ENCODING 64
SWIDTH 873 0
DWIDTH 15 0
BBX 13 13 1 0
BITMAP
07C0
1830
3010
6788
4888
9088
9108
9318
9730
9DE0
4000
6100
1E00
ENDCHAR
STARTCHAR A
ENCODING 65
SWIDTH 744 0
DWIDTH 13 0
BBX 13 13 0 0
BITMAP
0200
0600
0600
0500
0900
0880
1080
1080
3FC0
2040
2020
4020
E0F8
ENDCHAR
STARTCHAR B
ENCODING 66
SWIDTH 609 0
DWIDTH 10 0
BBX 9 13 0 0
BITMAP
FF00
2180
2080
2080
2080
2300
3F00
2300
2080
2080
2080
2180
FF00
ENDCHAR
STARTCHAR C
ENCODING 67
SWIDTH 695 0
DWIDTH 12 0
BBX 10 13 1 0
BITMAP
1FC0
30C0
4040
4000
8000
8000
8000
8000
8000
4000
4000
3040
1F80
ENDCHAR
STARTCHAR D
ENCODING 68
SWIDTH 768 0
DWIDTH 13 0
BBX 12 13 0 0
BITMAP
FF80
20C0
2020
2010
2010
2010
2010
2010
2010
2010
2020
2040
FF80
ENDCHAR
STARTCHAR E
ENCODING 69
SWIDTH 566 0
DWIDTH 10 0
BBX 10 13 0 0
BITMAP
FFC0
2040
2000
2000
2000
2100
3F00
2100
2000
2000
2040
2040
FFC0
ENDCHAR
STARTCHAR F
ENCODING 70
SWIDTH 548 0
DWIDTH 9 0
BBX 9 13 0 0
BITMAP
FF80
2080
2000
2000
2000
2100
3F00
2100
2000
2000
2000
2000
F800
ENDCHAR
STARTCHAR G
ENCODING 71
SWIDTH 732 0
DWIDTH 12 0
BBX 12 13 1 0
BITMAP
1F80
30C0
4040
4000
8000
8000
8000
81F0
8040
4040
4040
3040
1FC0
ENDCHAR
STARTCHAR H
ENCODING 72
SWIDTH 771 0
DWIDTH 13 0
BBX 13 13 0 0
BITMAP
F8F8
2020
2020
2020
2020
2020
3FE0
2020
2020
2020
2020
2020
F8F8
ENDCHAR
STARTCHAR I
ENCODING 73
SWIDTH 325 0
DWIDTH 6 0
BBX 5 13 0 0
BITMAP
F8
20
20
20
20
20
20
20
20
20
20
20
F8
ENDCHAR
STARTCHAR J
ENCODING 74
SWIDTH 422 0
DWIDTH 7 0
BBX 7 16 0 -3
BITMAP
3E
08
08
08
08
08
08
08
08
08
08
08
08
88
90
F0
ENDCHAR
STARTCHAR K
ENCODING 75
SWIDTH 708 0
DWIDTH 12 0
BBX 12 13 0 0
BITMAP
F9E0
20C0
2100
2200
2400
2800
3800
2C00
2600
2300
2180
20C0
F3F0
ENDCHAR
STARTCHAR L
ENCODING 76
SWIDTH 557 0
DWIDTH 9 0
BBX 9 13 0 0
BITMAP
F800
2000
2000
2000
2000
2000
2000
2000
2000
2000
2080
2080
FF80
ENDCHAR
STARTCHAR M
ENCODING 77
SWIDTH 860 0
DWIDTH 15 0
BBX 15 13 0 0
BITMAP
F01E
3018
2818
2828
2828
2448
2448
2248
2288
2188
2108
2108
F83E
ENDCHAR
STARTCHAR N
ENCODING 78
SWIDTH 751 0
DWIDTH 13 0
BBX 13 13 0 0
BITMAP
E0F8
3020
3020
2820
2420
2620
2220
2120
21A0
20A0
2060
2020
F820
ENDCHAR
STARTCHAR O
ENCODING 79
SWIDTH 777 0
DWIDTH 13 0
BBX 11 13 1 0
BITMAP
1F00
2080
4040
C060
8020
8020
8020
8020
8020
C060
4040
2080
1F00
ENDCHAR
STARTCHAR P
ENCODING 80
SWIDTH 573 0
DWIDTH 10 0
BBX 9 13 0 0
BITMAP
FE00
2100
2080
2080
2080
2180
2300
3E00
2000
2000
2000
2000
F800
ENDCHAR
STARTCHAR Q
ENCODING 81
SWIDTH 778 0
DWIDTH 13 0
BBX 13 16 1 -3
BITMAP
1F00
2080
4040
C040
8020
8020
8020
8020
8020
C060
4040
20C0
1F80
0180
00E0
0038
ENDCHAR
STARTCHAR R
ENCODING 82
SWIDTH 679 0
DWIDTH 11 0
BBX 11 13 0 0
BITMAP
FE00
2180
2080
2080
2080
2100
3E00
2200
2200
2100
2100
2080
F0E0
ENDCHAR
STARTCHAR S
ENCODING 83
SWIDTH 542 0
DWIDTH 9 0
BBX 7 13 1 0
BITMAP
3E
42
82
80
C0
60
18
04
02
02
82
84
F8
ENDCHAR
STARTCHAR T
ENCODING 84
SWIDTH 663 0
DWIDTH 11 0
BBX 11 13 0 0
BITMAP
FFE0
0400
0400
0400
0400
0400
0400
0400
0400
0400
0400
0400
1F00
ENDCHAR
STARTCHAR U
ENCODING 85
SWIDTH 719 0
DWIDTH 12 0
BBX 13 13 0 0
BITMAP
F8F8
2020
2020
2020
2020
2020
2020
2020
2020
2020
2020
1040
0F80
ENDCHAR
STARTCHAR V
ENCODING 86
SWIDTH 699 0
DWIDTH 12 0
BBX 12 13 0 0
BITMAP
F070
6020
2020
2040
1040
10C0
0880
0880
0D00
0500
0500
0200
0200
ENDCHAR
STARTCHAR W
ENCODING 87
SWIDTH 925 0
DWIDTH 16 0
BBX 16 13 0 0
BITMAP
F087
6182
2182
2184
21C4
1244
1248
1248
1428
0C30
0C30
0810
0810
ENDCHAR
STARTCHAR X
ENCODING 88
SWIDTH 657 0
DWIDTH 11 0
BBX 11 13 0 0
BITMAP
F8E0
3040
1080
1100
0B00
0E00
0C00
0A00
1300
3100
2080
40C0
E3E0
ENDCHAR
STARTCHAR Y
ENCODING 89
SWIDTH 678 0
DWIDTH 12 0
BBX 11 13 0 0
BITMAP
F8E0
3040
3080
1080
0900
0A00
0600
0400
0400
0400
0400
0400
1F00
ENDCHAR
STARTCHAR Z
ENCODING 90
SWIDTH 633 0
DWIDTH 11 0
BBX 8 13 1 0
BITMAP
FF
82
86
04
0C
08
10
10
20
20
41
41
FF
ENDCHAR
STARTCHAR bracketleft
ENCODING 91
SWIDTH 316 0
DWIDTH 5 0
BBX 3 16 2 -3
BITMAP
E0
80
80
80
80
80
80
80
80
80
80
80
80
80
80
E0
ENDCHAR
STARTCHAR backslash
ENCODING 92
SWIDTH 512 0
DWIDTH 9 0
BBX 9 16 0 -3
BITMAP
8000
4000
4000
2000
2000
1000
1000
0800
0800
0400
0400
0200
0200
0100
0100
0080
ENDCHAR
STARTCHAR bracketright
ENCODING 93
SWIDTH 316 0
DWIDTH 5 0
BBX 3 16 1 -3
BITMAP
E0
20
20
20
20
20
20
20
20
20
20
20
20
20
20
E0
ENDCHAR
STARTCHAR asciicircum
ENCODING 94
SWIDTH 608 0
DWIDTH 10 0
BBX 10 11 0 2
BITMAP
0400
0C00
0C00
1200
1200
3300
2100
2100
4080
4080
8040
ENDCHAR
STARTCHAR underscore
ENCODING 95
SWIDTH 500 0
DWIDTH 8 0
BBX 7 1 1 -1
BITMAP
FE
ENDCHAR
STARTCHAR grave
ENCODING 96
SWIDTH 602 0
DWIDTH 10 0
BBX 4 1 3 12
BITMAP
F0
ENDCHAR
STARTCHAR a
ENCODING 97
SWIDTH 543 0
DWIDTH 9 0
BBX 8 9 1 0
BITMAP
7C
86
82
02
3E
C2
82
C2
7F
ENDCHAR
STARTCHAR b
ENCODING 98
SWIDTH 611 0
DWIDTH 10 0
BBX 10 13 0 0
BITMAP
E000
2000
2000
2000
2F00
3080
2040
2040
2040
2040
2040
3080
2F00
ENDCHAR
STARTCHAR c
ENCODING 99
SWIDTH 509 0
DWIDTH 9 0
BBX 7 9 1 0
BITMAP
3E
42
C2
80
80
80
80
60
3E
ENDCHAR
STARTCHAR d
ENCODING 100
SWIDTH 642 0
DWIDTH 11 0
BBX 10 13 1 0
BITMAP
0700
0100
0100
0100
3D00
4300
8100
8100
8100
8100
8100
4300
3DC0
ENDCHAR
STARTCHAR e
ENCODING 101
SWIDTH 530 0
DWIDTH 9 0
BBX 7 9 1 0
BITMAP
38
44
82
82
FE
80
80
42
3C
ENDCHAR
STARTCHAR f
ENCODING 102
SWIDTH 404 0
DWIDTH 7 0
BBX 7 13 0 0
BITMAP
1E
22
22
20
FC
20
20
20
20
20
20
20
F8
ENDCHAR
STARTCHAR g
ENCODING 103
SWIDTH 571 0
DWIDTH 10 0
BBX 10 12 0 -3
BITMAP
3FC0
6300
4100
4100
4100
2200
7C00
4000
7F80
8040
C0C0
7F00
ENDCHAR
STARTCHAR h
ENCODING 104
SWIDTH 633 0
DWIDTH 11 0
BBX 11 13 0 0
BITMAP
E000
2000
2000
2000
2F00
3080
2080
2080
2080
2080
2080
2080
FBE0
ENDCHAR
STARTCHAR i
ENCODING 105
SWIDTH 307 0
DWIDTH 5 0
BBX 5 13 0 0
BITMAP
20
00
00
00
E0
20
20
20
20
20
20
20
F8
ENDCHAR
STARTCHAR j
ENCODING 106
SWIDTH 346 0
DWIDTH 6 0
BBX 5 16 0 -3
BITMAP
08
00
00
00
38
08
08
08
08
08
08
08
08
88
88
F0
ENDCHAR
STARTCHAR k
ENCODING 107
SWIDTH 599 0
DWIDTH 10 0
BBX 10 13 0 0
BITMAP
E000
2000
2000
2000
2380
2300
2600
2800
3800
2C00
2600
2300
F1C0
ENDCHAR
STARTCHAR l
ENCODING 108
SWIDTH 313 0
DWIDTH 5 0
BBX 5 13 0 0
BITMAP
E0
20
20
20
20
20
20
20
20
20
20
20
F8
ENDCHAR
STARTCHAR m
ENCODING 109
SWIDTH 946 0
DWIDTH 16 0
BBX 17 9 0 0
BITMAP
EF3C00
30C200
208200
208200
208200
208200
208200
208200
FBEF80
ENDCHAR
STARTCHAR n
ENCODING 110
SWIDTH 633 0
DWIDTH 11 0
BBX 11 9 0 0
BITMAP
EF00
3080
2080
2080
2080
2080
2080
2080
FBE0
ENDCHAR
STARTCHAR o
ENCODING 111
SWIDTH 602 0
DWIDTH 10 0
BBX 9 9 1 0
BITMAP
3E00
6300
C180
8080
8080
8080
C180
6300
3E00
ENDCHAR
STARTCHAR p
ENCODING 112
SWIDTH 642 0
DWIDTH 11 0
BBX 10 12 0 -3
BITMAP
EF00
3080
2040
2040
2040
2040
2040
3080
2F00
2000
2000
F800
ENDCHAR
STARTCHAR q
ENCODING 113
SWIDTH 617 0
DWIDTH 10 0
BBX 10 12 1 -3
BITMAP
3D00
4300
8100
8100
8100
8100
8100
4300
3D00
0100
0100
07C0
ENDCHAR
STARTCHAR r
ENCODING 114
SWIDTH 440 0
DWIDTH 7 0
BBX 6 9 1 0
BITMAP
EC
34
24
20
20
20
20
20
F8
ENDCHAR
STARTCHAR s
ENCODING 115
SWIDTH 504 0
DWIDTH 9 0
BBX 6 9 1 0
BITMAP
7C
84
84
C0
30
0C
84
84
F8
ENDCHAR
STARTCHAR t
ENCODING 116
SWIDTH 392 0
DWIDTH 7 0
BBX 5 12 1 0
BITMAP
40
40
40
F8
40
40
40
40
40
40
40
38
ENDCHAR
STARTCHAR u
ENCODING 117
SWIDTH 633 0
DWIDTH 11 0
BBX 11 9 0 0
BITMAP
E380
2080
2080
2080
2080
2080
2080
2180
1EE0
ENDCHAR
STARTCHAR v
ENCODING 118
SWIDTH 545 0
DWIDTH 9 0
BBX 9 9 0 0
BITMAP
F380
6100
2100
2200
1200
1600
1400
0C00
0800
ENDCHAR
STARTCHAR w
ENCODING 119
SWIDTH 795 0
DWIDTH 14 0
BBX 14 9 0 0
BITMAP
F11C
6308
2308
2298
2490
14D0
1860
1860
1020
ENDCHAR
STARTCHAR x
ENCODING 120
SWIDTH 557 0
DWIDTH 9 0
BBX 10 9 0 0
BITMAP
F1C0
6180
3300
1A00
0C00
1600
2300
4180
E3C0
ENDCHAR
STARTCHAR y
ENCODING 121
SWIDTH 551 0
DWIDTH 9 0
BBX 9 12 0 -3
BITMAP
F380
6100
2100
2300
1200
1200
1C00
0C00
0800
0800
1000
7000
ENDCHAR
STARTCHAR z
ENCODING 122
SWIDTH 595 0
DWIDTH 10 0
BBX 8 9 1 0
BITMAP
FF
86
04
08
10
30
20
41
FF
ENDCHAR
STARTCHAR braceleft
ENCODING 123
SWIDTH 343 0
DWIDTH 6 0
BBX 4 16 1 -3
BITMAP
30
40
40
40
40
40
40
40
80
40
40
40
40
40
40
30
ENDCHAR
STARTCHAR bar
ENCODING 124
SWIDTH 241 0
DWIDTH 4 0
BBX 1 16 2 -3
BITMAP
80
80
80
80
80
80
80
80
80
80
80
80
80
80
80
80
ENDCHAR
STARTCHAR braceright
ENCODING 125
SWIDTH 343 0
DWIDTH 6 0
BBX 4 16 1 -3
BITMAP
C0
20
20
20
20
20
20
20
10
20
20
20
20
20
20
C0
ENDCHAR
STARTCHAR asciitilde
ENCODING 126
SWIDTH 608 0
DWIDTH 10 0
BBX 10 4 0 3
BITMAP
7040
9840
8440
8380
ENDCHAR
STARTCHAR space
ENCODING 160
SWIDTH 333 0
DWIDTH 5 0
BBX 1 1 0 0
BITMAP
00
ENDCHAR
STARTCHAR exclamdown
ENCODING 161
SWIDTH 265 0
DWIDTH 4 0
BBX 2 12 3 -3
BITMAP
40
00
00
80
80
80
40
40
40
40
40
40
ENDCHAR
STARTCHAR cent
ENCODING 162
SWIDTH 608 0
DWIDTH 10 0
BBX 7 13 1 0
BITMAP
10
1E
72
52
90
90
90
90
90
90
50
3E
10
ENDCHAR
STARTCHAR sterling
ENCODING 163
SWIDTH 608 0
DWIDTH 10 0
BBX 7 13 2 0
BITMAP
1E
22
22
20
20
20
F8
20
20
20
20
40
FE
ENDCHAR
STARTCHAR currency
ENCODING 164
SWIDTH 608 0
DWIDTH 10 0
BBX 9 11 1 1
BITMAP
8080
DD80
7700
4100
4100
4100
4100
6300
2200
5D00
8080
ENDCHAR
STARTCHAR yen
ENCODING 165
SWIDTH 608 0
DWIDTH 10 0
BBX 11 13 0 0
BITMAP
F9E0
30C0
1180
0B00
0600
3F80
0400
0400
3F80
0400
0400
0400
1F00
ENDCHAR
STARTCHAR brokenbar
ENCODING 166
SWIDTH 241 0
DWIDTH 4 0
BBX 1 16 2 -3
BITMAP
80
80
80
80
80
80
80
00
00
80
80
80
80
80
80
80
ENDCHAR
STARTCHAR section
ENCODING 167
SWIDTH 608 0
DWIDTH 10 0
BBX 7 16 2 -3
BITMAP
3E
C6
82
80
80
70
9C
86
82
62
1C
06
02
82
C6
FC
ENDCHAR
STARTCHAR dieresis
ENCODING 168
SWIDTH 602 0
DWIDTH 10 0
BBX 5 1 3 12
BITMAP
D8
ENDCHAR
STARTCHAR copyright
ENCODING 169
SWIDTH 855 0
DWIDTH 15 0
BBX 12 13 1 0
BITMAP
0F00
30C0
6060
4F20
9910
9010
9010
9010
9810
4F20
6060
30C0
0F00
ENDCHAR
STARTCHAR ordfeminine
ENCODING 170
SWIDTH 428 0
DWIDTH 7 0
BBX 7 7 0 6
BITMAP
F8
84
04
7C
C4
84
7E
ENDCHAR
STARTCHAR guillemotleft
ENCODING 171
SWIDTH 530 0
DWIDTH 9 0
BBX 7 7 1 1
BITMAP
12
24
4C
D8
4C
24
12
ENDCHAR
STARTCHAR logicalnot
ENCODING 172
SWIDTH 608 0
DWIDTH 10 0
BBX 10 5 0 2
BITMAP
FFC0
0040
0040
0040
0040
ENDCHAR
STARTCHAR hyphen
ENCODING 173
SWIDTH 325 0
DWIDTH 6 0
BBX 4 1 1 5
BITMAP
F0
ENDCHAR
STARTCHAR registered
ENCODING 174
SWIDTH 608 0
DWIDTH 10 0
BBX 7 8 2 5
BITMAP
38
44
FA
AA
AA
B2
6C
38
ENDCHAR
STARTCHAR macron
ENCODING 175
SWIDTH 602 0
DWIDTH 10 0
BBX 5 1 3 12
BITMAP
F8
ENDCHAR
STARTCHAR degree
ENCODING 176
SWIDTH 259 0
DWIDTH 4 0
BBX 3 4 1 9
BITMAP
40
A0
A0
40
ENDCHAR
STARTCHAR plusminus
ENCODING 177
SWIDTH 608 0
DWIDTH 10 0
BBX 9 11 1 0
BITMAP
0800
0800
0800
0800
FF80
0800
0800
0800
0000
0000
FF80
ENDCHAR
STARTCHAR twosuperior
ENCODING 178
SWIDTH 365 0
DWIDTH 6 0
BBX 4 8 -10 5
BITMAP
E0
90
10
10
20
40
80
F0
ENDCHAR
STARTCHAR threesuperior
ENCODING 179
SWIDTH 365 0
DWIDTH 6 0
BBX 4 8 -10 5
BITMAP
E0
90
10
60
30
10
90
E0
ENDCHAR
STARTCHAR acute
ENCODING 180
SWIDTH 602 0
DWIDTH 10 0
BBX 4 1 3 12
BITMAP
F0
ENDCHAR
STARTCHAR mu
ENCODING 181
SWIDTH 626 0
DWIDTH 11 0
BBX 11 12 0 -3
BITMAP
E380
2080
2080
2080
2080
2080
2080
2180
3EE0
2000
2000
2000
ENDCHAR
STARTCHAR paragraph
ENCODING 182
SWIDTH 608 0
DWIDTH 10 0
BBX 7 16 1 -3
BITMAP
7E
FA
FA
FA
FA
7A
1A
0A
0A
0A
0A
0A
0A
0A
0A
0A
ENDCHAR
STARTCHAR periodcentered
ENCODING 183
SWIDTH 608 0
DWIDTH 10 0
BBX 2 1 4 5
BITMAP
C0
ENDCHAR
STARTCHAR cedilla
ENCODING 184
SWIDTH 602 0
DWIDTH 10 0
BBX 3 3 4 -3
BITMAP
C0
60
E0
ENDCHAR
STARTCHAR onesuperior
ENCODING 185
SWIDTH 365 0
DWIDTH 6 0
BBX 3 8 -10 5
BITMAP
C0
40
40
40
40
40
40
E0
ENDCHAR
STARTCHAR ordmasculine
ENCODING 186
SWIDTH 428 0
DWIDTH 7 0
BBX 6 7 1 6
BITMAP
78
CC
84
84
84
CC
78
ENDCHAR
STARTCHAR guillemotright
ENCODING 187
SWIDTH 530 0
DWIDTH 9 0
BBX 7 7 1 1
BITMAP
90
48
64
36
64
48
90
ENDCHAR
STARTCHAR onequarter
ENCODING 188
SWIDTH 766 0
DWIDTH 13 0
BBX 11 13 4 0
BITMAP
C0C0
4080
4100
4300
4200
4440
4CC0
E940
1240
33E0
2040
4040
80E0
ENDCHAR
STARTCHAR onehalf
ENCODING 189
SWIDTH 766 0
DWIDTH 13 0
BBX 10 13 4 0
BITMAP
C0C0
4080
4100
4300
4200
4780
4E40
E840
1040
3080
2100
4200
83C0
ENDCHAR
STARTCHAR threequarters
ENCODING 190
SWIDTH 766 0
DWIDTH 13 0
BBX 12 13 5 0
BITMAP
E060
9040
1080
6180
3100
1220
9660
E4A0
0920
19F0
1020
2020
4070
ENDCHAR
STARTCHAR questiondown
ENCODING 191
SWIDTH 480 0
DWIDTH 8 0
BBX 6 13 1 -4
BITMAP
10
00
00
10
10
10
20
40
40
80
84
C4
7C
ENDCHAR
STARTCHAR Agrave
ENCODING 192
SWIDTH 744 0
DWIDTH 13 0
BBX 13 15 0 0
BITMAP
0F00
0000
0200
0600
0600
0500
0900
0880
1080
1080
3FC0
2040
2020
4020
E0F8
ENDCHAR
STARTCHAR Aacute
ENCODING 193
SWIDTH 744 0
DWIDTH 13 0
BBX 13 15 0 0
BITMAP
0780
0000
0200
0600
0600
0500
0900
0880
1080
1080
3FC0
2040
2020
4020
E0F8
ENDCHAR
STARTCHAR Acircumflex
ENCODING 194
SWIDTH 744 0
DWIDTH 13 0
BBX 13 15 0 0
BITMAP
1F80
0000
0200
0600
0600
0500
0900
0880
1080
1080
3FC0
2040
2020
4020
E0F8
ENDCHAR
STARTCHAR Atilde
ENCODING 195
SWIDTH 744 0
DWIDTH 13 0
BBX 13 15 0 0
BITMAP
0FC0
0000
0200
0600
0600
0500
0900
0880
1080
1080
3FC0
2040
2020
4020
E0F8
ENDCHAR
STARTCHAR Adieresis
ENCODING 196
SWIDTH 744 0
DWIDTH 13 0
BBX 13 15 0 0
BITMAP
0D80
0000
0200
0600
0600
0500
0900
0880
1080
1080
3FC0
2040
2020
4020
E0F8
ENDCHAR
STARTCHAR Aring
ENCODING 197
SWIDTH 744 0
DWIDTH 13 0
BBX 13 16 0 0
BITMAP
0700
0700
0000
0200
0600
0600
0500
0900
0880
1080
1080
3FC0
2040
2020
4020
E0F8
ENDCHAR
STARTCHAR AE
ENCODING 198
SWIDTH 919 0
DWIDTH 16 0
BBX 15 13 0 0
BITMAP
00FE
0182
0380
0280
0480
0C84
08FC
1080
1F80
2080
6080
4082
E3FE
ENDCHAR
STARTCHAR Ccedilla
ENCODING 199
SWIDTH 695 0
DWIDTH 12 0
BBX 10 16 1 -3
BITMAP
1FC0
30C0
4040
4000
8000
8000
8000
8000
8000
4000
4000
3040
1F80
0400
0600
0E00
ENDCHAR
STARTCHAR Egrave
ENCODING 200
SWIDTH 566 0
DWIDTH 10 0
BBX 10 15 0 0
BITMAP
1E00
0000
FFC0
2040
2000
2000
2000
2100
3F00
2100
2000
2000
2040
2040
FFC0
ENDCHAR
STARTCHAR Eacute
ENCODING 201
SWIDTH 566 0
DWIDTH 10 0
BBX 10 15 0 0
BITMAP
1E00
0000
FFC0
2040
2000
2000
2000
2100
3F00
2100
2000
2000
2040
2040
FFC0
ENDCHAR
STARTCHAR Ecircumflex
ENCODING 202
SWIDTH 566 0
DWIDTH 10 0
BBX 10 15 0 0
BITMAP
3F00
0000
FFC0
2040
2000
2000
2000
2100
3F00
2100
2000
2000
2040
2040
FFC0
ENDCHAR
STARTCHAR Edieresis
ENCODING 203
SWIDTH 566 0
DWIDTH 10 0
BBX 10 15 0 0
BITMAP
1B00
0000
FFC0
2040
2000
2000
2000
2100
3F00
2100
2000
2000
2040
2040
FFC0
ENDCHAR
STARTCHAR Igrave
ENCODING 204
SWIDTH 325 0
DWIDTH 6 0
BBX 5 15 0 0
BITMAP
F0
00
F8
20
20
20
20
20
20
20
20
20
20
20
F8
ENDCHAR
STARTCHAR Iacute
ENCODING 205
SWIDTH 325 0
DWIDTH 6 0
BBX 5 15 0 0
BITMAP
78
00
F8
20
20
20
20
20
20
20
20
20
20
20
F8
ENDCHAR
STARTCHAR Icircumflex
ENCODING 206
SWIDTH 325 0
DWIDTH 6 0
BBX 6 15 1 0
BITMAP
FC
00
7C
10
10
10
10
10
10
10
10
10
10
10
7C
ENDCHAR
STARTCHAR Idieresis
ENCODING 207
SWIDTH 325 0
DWIDTH 6 0
BBX 5 15 0 0
BITMAP
D8
00
F8
20
20
20
20
20
20
20
20
20
20
20
F8
ENDCHAR
STARTCHAR Eth
ENCODING 208
SWIDTH 768 0
DWIDTH 13 0
BBX 12 13 0 0
BITMAP
FF80
20C0
2020
2010
2010
2010
FC10
2010
2010
2010
2020
2040
FF80
ENDCHAR
STARTCHAR Ntilde
ENCODING 209
SWIDTH 751 0
DWIDTH 13 0
BBX 13 15 0 0
BITMAP
0FC0
0000
E0F8
3020
3020
2820
2420
2620
2220
2120
21A0
20A0
2060
2020
F820
ENDCHAR
STARTCHAR Ograve
ENCODING 210
SWIDTH 777 0
DWIDTH 13 0
BBX 11 15 1 0
BITMAP
1E00
0000
1F00
2080
4040
C060
8020
8020
8020
8020
8020
C060
4040
2080
1F00
ENDCHAR
STARTCHAR Oacute
ENCODING 211
SWIDTH 777 0
DWIDTH 13 0
BBX 11 15 1 0
BITMAP
0F00
0000
1F00
2080
4040
C060
8020
8020
8020
8020
8020
C060
4040
2080
1F00
ENDCHAR
STARTCHAR Ocircumflex
ENCODING 212
SWIDTH 777 0
DWIDTH 13 0
BBX 11 15 1 0
BITMAP
3F00
0000
1F00
2080
4040
C060
8020
8020
8020
8020
8020
C060
4040
2080
1F00
ENDCHAR
STARTCHAR Otilde
ENCODING 213
SWIDTH 777 0
DWIDTH 13 0
BBX 11 15 1 0
BITMAP
1F80
0000
1F00
2080
4040
C060
8020
8020
8020
8020
8020
C060
4040
2080
1F00
ENDCHAR
STARTCHAR Odieresis
ENCODING 214
SWIDTH 777 0
DWIDTH 13 0
BBX 11 15 1 0
BITMAP
1B00
0000
1F00
2080
4040
C060
8020
8020
8020
8020
8020
C060
4040
2080
1F00
ENDCHAR
STARTCHAR multiply
ENCODING 215
SWIDTH 608 0
DWIDTH 10 0
BBX 10 11 0 0
BITMAP
8040
4080
2100
3300
1E00
0C00
1E00
1200
2100
4080
8040
ENDCHAR
STARTCHAR Oslash
ENCODING 216
SWIDTH 777 0
DWIDTH 13 0
BBX 11 13 1 0
BITMAP
1F20
20E0
4060
C0E0
8120
8220
8420
8820
9020
E060
C040
E180
9F00
ENDCHAR
STARTCHAR Ugrave
ENCODING 217
SWIDTH 719 0
DWIDTH 12 0
BBX 13 15 0 0
BITMAP
0F00
0000
F8F8
2020
2020
2020
2020
2020
2020
2020
2020
2020
2020
1040
0F80
ENDCHAR
STARTCHAR Uacute
ENCODING 218
SWIDTH 719 0
DWIDTH 12 0
BBX 13 15 0 0
BITMAP
0780
0000
F8F8
2020
2020
2020
2020
2020
2020
2020
2020
2020
2020
1040
0F80
ENDCHAR
STARTCHAR Ucircumflex
ENCODING 219
SWIDTH 719 0
DWIDTH 12 0
BBX 13 15 0 0
BITMAP
0FC0
0000
F8F8
2020
2020
2020
2020
2020
2020
2020
2020
2020
2020
1040
0F80
ENDCHAR
STARTCHAR Udieresis
ENCODING 220
SWIDTH 719 0
DWIDTH 12 0
BBX 13 15 0 0
BITMAP
0D80
0000
F8F8
2020
2020
2020
2020
2020
2020
2020
2020
2020
2020
1040
0F80
ENDCHAR
STARTCHAR Yacute
ENCODING 221
SWIDTH 678 0
DWIDTH 12 0
BBX 11 15 0 0
BITMAP
0F00
0000
F8E0
3040
3080
1080
0900
0A00
0600
0400
0400
0400
0400
0400
1F00
ENDCHAR
STARTCHAR Thorn
ENCODING 222
SWIDTH 573 0
DWIDTH 10 0
BBX 10 13 0 0
BITMAP
F800
2000
2000
3F00
20C0
2040
2040
2040
2180
3E00
2000
2000
F800
ENDCHAR
STARTCHAR germandbls
ENCODING 223
SWIDTH 614 0
DWIDTH 10 0
BBX 11 13 0 0
BITMAP
1F00
3180
2080
2180
2200
2200
2300
2180
20C0
2020
2020
2220
FBC0
ENDCHAR
STARTCHAR agrave
ENCODING 224
SWIDTH 543 0
DWIDTH 9 0
BBX 8 11 1 0
BITMAP
3C
00
7C
86
82
02
3E
C2
82
C2
7F
ENDCHAR
STARTCHAR aacute
ENCODING 225
SWIDTH 543 0
DWIDTH 9 0
BBX 8 11 1 0
BITMAP
3C
00
7C
86
82
02
3E
C2
82
C2
7F
ENDCHAR
STARTCHAR acircumflex
ENCODING 226
SWIDTH 543 0
DWIDTH 9 0
BBX 8 11 1 0
BITMAP
7E
00
7C
86
82
02
3E
C2
82
C2
7F
ENDCHAR
STARTCHAR atilde
ENCODING 227
SWIDTH 543 0
DWIDTH 9 0
BBX 8 11 1 0
BITMAP
7E
00
7C
86
82
02
3E
C2
82
C2
7F
ENDCHAR
STARTCHAR adieresis
ENCODING 228
SWIDTH 543 0
DWIDTH 9 0
BBX 8 11 1 0
BITMAP
6C
00
7C
86
82
02
3E
C2
82
C2
7F
ENDCHAR
STARTCHAR aring
ENCODING 229
SWIDTH 543 0
DWIDTH 9 0
BBX 8 12 1 0
BITMAP
38
38
00
7C
86
82
02
3E
C2
82
C2
7F
ENDCHAR
STARTCHAR ae
ENCODING 230
SWIDTH 819 0
DWIDTH 14 0
BBX 12 9 1 0
BITMAP
79C0
8E20
8410
0410
3FF0
C400
8400
8610
79E0
ENDCHAR
STARTCHAR ccedilla
ENCODING 231
SWIDTH 509 0
DWIDTH 9 0
BBX 7 12 1 -3
BITMAP
3E
42
C2
80
80
80
80
60
3E
10
18
38
ENDCHAR
STARTCHAR egrave
ENCODING 232
SWIDTH 530 0
DWIDTH 9 0
BBX 7 11 1 0
BITMAP
78
00
38
44
82
82
FE
80
80
42
3C
ENDCHAR
STARTCHAR eacute
ENCODING 233
SWIDTH 530 0
DWIDTH 9 0
BBX 7 11 1 0
BITMAP
3C
00
38
44
82
82
FE
80
80
42
3C
ENDCHAR
STARTCHAR ecircumflex
ENCODING 234
SWIDTH 530 0
DWIDTH 9 0
BBX 7 11 1 0
BITMAP
7E
00
38
44
82
82
FE
80
80
42
3C
ENDCHAR
STARTCHAR edieresis
ENCODING 235
SWIDTH 530 0
DWIDTH 9 0
BBX 7 11 1 0
BITMAP
6C
00
38
44
82
82
FE
80
80
42
3C
ENDCHAR
STARTCHAR igrave
ENCODING 236
SWIDTH 307 0
DWIDTH 5 0
BBX 5 11 0 0
BITMAP
F0
00
E0
20
20
20
20
20
20
20
F8
ENDCHAR
STARTCHAR iacute
ENCODING 237
SWIDTH 307 0
DWIDTH 5 0
BBX 5 11 0 0
BITMAP
78
00
E0
20
20
20
20
20
20
20
F8
ENDCHAR
STARTCHAR icircumflex
ENCODING 238
SWIDTH 307 0
DWIDTH 5 0
BBX 6 11 1 0
BITMAP
FC
00
70
10
10
10
10
10
10
10
7C
ENDCHAR
STARTCHAR idieresis
ENCODING 239
SWIDTH 307 0
DWIDTH 5 0
BBX 5 11 0 0
BITMAP
D8
00
E0
20
20
20
20
20
20
20
F8
ENDCHAR
STARTCHAR eth
ENCODING 240
SWIDTH 596 0
DWIDTH 10 0
BBX 9 13 1 0
BITMAP
FE00
1C00
3E00
4300
3F00
6380
C180
8080
8080
8080
C180
6300
3E00
ENDCHAR
STARTCHAR ntilde
ENCODING 241
SWIDTH 633 0
DWIDTH 11 0
BBX 11 11 0 0
BITMAP
3F00
0000
EF00
3080
2080
2080
2080
2080
2080
2080
FBE0
ENDCHAR
STARTCHAR ograve
ENCODING 242
SWIDTH 602 0
DWIDTH 10 0
BBX 9 11 1 0
BITMAP
3C00
0000
3E00
6300
C180
8080
8080
8080
C180
6300
3E00
ENDCHAR
STARTCHAR oacute
ENCODING 243
SWIDTH 602 0
DWIDTH 10 0
BBX 9 11 1 0
BITMAP
1E00
0000
3E00
6300
C180
8080
8080
8080
C180
6300
3E00
ENDCHAR
STARTCHAR ocircumflex
ENCODING 244
SWIDTH 602 0
DWIDTH 10 0
BBX 9 11 1 0
BITMAP
7E00
0000
3E00
6300
C180
8080
8080
8080
C180
6300
3E00
ENDCHAR
STARTCHAR otilde
ENCODING 245
SWIDTH 602 0
DWIDTH 10 0
BBX 9 11 1 0
BITMAP
7E00
0000
3E00
6300
C180
8080
8080
8080
C180
6300
3E00
ENDCHAR
STARTCHAR odieresis
ENCODING 246
SWIDTH 602 0
DWIDTH 10 0
BBX 9 11 1 0
BITMAP
3600
0000
3E00
6300
C180
8080
8080
8080
C180
6300
3E00
ENDCHAR
STARTCHAR divide
ENCODING 247
SWIDTH 608 0
DWIDTH 10 0
BBX 9 9 1 0
BITMAP
0800
0000
0000
0000
FF80
0000
0000
0000
0800
ENDCHAR
STARTCHAR oslash
ENCODING 248
SWIDTH 602 0
DWIDTH 10 0
BBX 9 9 1 0
BITMAP
3E80
6180
C380
8680
8880
B080
E180
C300
BE00
ENDCHAR
STARTCHAR ugrave
ENCODING 249
SWIDTH 633 0
DWIDTH 11 0
BBX 11 11 0 0
BITMAP
1E00
0000
E380
2080
2080
2080
2080
2080
2080
2180
1EE0
ENDCHAR
STARTCHAR uacute
ENCODING 250
SWIDTH 633 0
DWIDTH 11 0
BBX 11 11 0 0
BITMAP
0F00
0000
E380
2080
2080
2080
2080
2080
2080
2180
1EE0
ENDCHAR
STARTCHAR ucircumflex
ENCODING 251
SWIDTH 633 0
DWIDTH 11 0
BBX 11 11 0 0
BITMAP
1F80
0000
E380
2080
2080
2080
2080
2080
2080
2180
1EE0
ENDCHAR
STARTCHAR udieresis
ENCODING 252
SWIDTH 633 0
DWIDTH 11 0
BBX 11 11 0 0
BITMAP
1B00
0000
E380
2080
2080
2080
2080
2080
2080
2180
1EE0
ENDCHAR
STARTCHAR yacute
ENCODING 253
SWIDTH 551 0
DWIDTH 9 0
BBX 9 14 0 -3
BITMAP
1E00
0000
F380
6100
2100
2300
1200
1200
1C00
0C00
0800
0800
1000
7000
ENDCHAR
STARTCHAR thorn
ENCODING 254
SWIDTH 642 0
DWIDTH 11 0
BBX 10 16 0 -3
BITMAP
E000
2000
2000
2000
2F00
3080
2040
2040
2040
2040
2040
3080
2F00
2000
2000
F800
ENDCHAR
STARTCHAR ydieresis
ENCODING 255
SWIDTH 551 0
DWIDTH 9 0
BBX 9 14 0 -3
BITMAP
3600
0000
F380
6100
2100
2300
1200
1200
1C00
0C00
0800
0800
1000
7000
ENDCHAR
STARTCHAR Amacron
ENCODING 256
SWIDTH 744 0
DWIDTH 13 0
BBX 13 15 0 0
BITMAP
0F80
0000
0200
0600
0600
0500
0900
0880
1080
1080
3FC0
2040
2020
4020
E0F8
ENDCHAR
STARTCHAR amacron
ENCODING 257
SWIDTH 543 0
DWIDTH 9 0
BBX 8 11 1 0
BITMAP
7C
00
7C
86
82
02
3E
C2
82
C2
7F
ENDCHAR
STARTCHAR Abreve
ENCODING 258
SWIDTH 744 0
DWIDTH 13 0
BBX 13 15 0 0
BITMAP
1F80
0000
0200
0600
0600
0500
0900
0880
1080
1080
3FC0
2040
2020
4020
E0F8
ENDCHAR
STARTCHAR abreve
ENCODING 259
SWIDTH 543 0
DWIDTH 9 0
BBX 8 11 1 0
BITMAP
7E
00
7C
86
82
02
3E
C2
82
C2
7F
ENDCHAR
STARTCHAR Aogonek
ENCODING 260
SWIDTH 744 0
DWIDTH 13 0
BBX 13 16 0 -3
BITMAP
0200
0600
0600
0500
0900
0880
1080
1080
3FC0
2040
2020
4020
E0F8
0000
0000
0700
ENDCHAR
STARTCHAR aogonek
ENCODING 261
SWIDTH 543 0
DWIDTH 9 0
BBX 8 12 1 -3
BITMAP
7C
86
82
02
3E
C2
82
C2
7F
00
00
38
ENDCHAR
STARTCHAR Cacute
ENCODING 262
SWIDTH 695 0
DWIDTH 12 0
BBX 10 15 1 0
BITMAP
0F00
0000
1FC0
30C0
4040
4000
8000
8000
8000
8000
8000
4000
4000
3040
1F80
ENDCHAR
STARTCHAR cacute
ENCODING 263
SWIDTH 509 0
DWIDTH 9 0
BBX 7 11 1 0
BITMAP
3C
00
3E
42
C2
80
80
80
80
60
3E
ENDCHAR
STARTCHAR Ccircumflex
ENCODING 264
SWIDTH 695 0
DWIDTH 12 0
BBX 10 15 1 0
BITMAP
1F80
0000
1FC0
30C0
4040
4000
8000
8000
8000
8000
8000
4000
4000
3040
1F80
ENDCHAR
STARTCHAR ccircumflex
ENCODING 265
SWIDTH 509 0
DWIDTH 9 0
BBX 7 11 1 0
BITMAP
7E
00
3E
42
C2
80
80
80
80
60
3E
ENDCHAR
STARTCHAR Cdotaccent
ENCODING 266
SWIDTH 695 0
DWIDTH 12 0
BBX 10 15 1 0
BITMAP
0600
0000
1FC0
30C0
4040
4000
8000
8000
8000
8000
8000
4000
4000
3040
1F80
ENDCHAR
STARTCHAR cdotaccent
ENCODING 267
SWIDTH 509 0
DWIDTH 9 0
BBX 7 11 1 0
BITMAP
18
00
3E
42
C2
80
80
80
80
60
3E
ENDCHAR
STARTCHAR Ccaron
ENCODING 268
SWIDTH 695 0
DWIDTH 12 0
BBX 10 15 1 0
BITMAP
1F80
0000
1FC0
30C0
4040
4000
8000
8000
8000
8000
8000
4000
4000
3040
1F80
ENDCHAR
STARTCHAR ccaron
ENCODING 269
SWIDTH 509 0
DWIDTH 9 0
BBX 7 11 1 0
BITMAP
7E
00
3E
42
C2
80
80
80
80
60
3E
ENDCHAR
STARTCHAR Dcaron
ENCODING 270
SWIDTH 768 0
DWIDTH 13 0
BBX 12 15 0 0
BITMAP
1F80
0000
FF80
20C0
2020
2010
2010
2010
2010
2010
2010
2010
2020
2040
FF80
ENDCHAR
STARTCHAR dcaron
ENCODING 271
SWIDTH 875 0
DWIDTH 14 0
BBX 12 13 1 0
BITMAP
0730
0130
0110
0110
3D20
4300
8100
8100
8100
8100
8100
4300
3DC0
ENDCHAR
STARTCHAR Dcroat
ENCODING 272
SWIDTH 768 0
DWIDTH 13 0
BBX 12 13 0 0
BITMAP
FF80
20C0
2020
2010
2010
2010
FC10
2010
2010
2010
2020
2040
FF80
ENDCHAR
STARTCHAR dcroat
ENCODING 273
SWIDTH 642 0
DWIDTH 11 0
BBX 10 13 1 0
BITMAP
0700
0100
07C0
0100
3D00
4300
8100
8100
8100
8100
8100
4300
3DC0
ENDCHAR
STARTCHAR Emacron
ENCODING 274
SWIDTH 566 0
DWIDTH 10 0
BBX 10 15 0 0
BITMAP
3E00
0000
FFC0
2040
2000
2000
2000
2100
3F00
2100
2000
2000
2040
2040
FFC0
ENDCHAR
STARTCHAR emacron
ENCODING 275
SWIDTH 530 0
DWIDTH 9 0
BBX 7 11 1 0
BITMAP
7C
00
38
44
82
82
FE
80
80
42
3C
ENDCHAR
STARTCHAR Ebreve
ENCODING 276
SWIDTH 566 0
DWIDTH 10 0
BBX 10 15 0 0
BITMAP
3F00
0000
FFC0
2040
2000
2000
2000
2100
3F00
2100
2000
2000
2040
2040
FFC0
ENDCHAR
STARTCHAR ebreve
ENCODING 277
SWIDTH 530 0
DWIDTH 9 0
BBX 7 11 1 0
BITMAP
7E
00
38
44
82
82
FE
80
80
42
3C
ENDCHAR
STARTCHAR Edotaccent
ENCODING 278
SWIDTH 566 0
DWIDTH 10 0
BBX 10 15 0 0
BITMAP
0C00
0000
FFC0
2040
2000
2000
2000
2100
3F00
2100
2000
2000
2040
2040
FFC0
ENDCHAR
STARTCHAR edotaccent
ENCODING 279
SWIDTH 530 0
DWIDTH 9 0
BBX 7 11 1 0
BITMAP
18
00
38
44
82
82
FE
80
80
42
3C
ENDCHAR
STARTCHAR Eogonek
ENCODING 280
SWIDTH 566 0
DWIDTH 10 0
BBX 10 16 0 -3
BITMAP
FFC0
2040
2000
2000
2000
2100
3F00
2100
2000
2000
2040
2040
FFC0
0000
0000
0E00
ENDCHAR
STARTCHAR eogonek
ENCODING 281
SWIDTH 530 0
DWIDTH 9 0
BBX 7 12 1 -3
BITMAP
38
44
82
82
FE
80
80
42
3C
00
00
38
ENDCHAR
STARTCHAR Ecaron
ENCODING 282
SWIDTH 566 0
DWIDTH 10 0
BBX 10 15 0 0
BITMAP
3F00
0000
FFC0
2040
2000
2000
2000
2100
3F00
2100
2000
2000
2040
2040
FFC0
ENDCHAR
STARTCHAR ecaron
ENCODING 283
SWIDTH 530 0
DWIDTH 9 0
BBX 7 11 1 0
BITMAP
7E
00
38
44
82
82
FE
80
80
42
3C
ENDCHAR
STARTCHAR Gcircumflex
ENCODING 284
SWIDTH 732 0
DWIDTH 12 0
BBX 12 15 1 0
BITMAP
1F80
0000
1F80
30C0
4040
4000
8000
8000
8000
81F0
8040
4040
4040
3040
1FC0
ENDCHAR
STARTCHAR gcircumflex
ENCODING 285
SWIDTH 571 0
DWIDTH 10 0
BBX 10 14 0 -3
BITMAP
3F00
0000
3FC0
6300
4100
4100
4100
2200
7C00
4000
7F80
8040
C0C0
7F00
ENDCHAR
STARTCHAR Gbreve
ENCODING 286
SWIDTH 732 0
DWIDTH 12 0
BBX 12 15 1 0
BITMAP
1F80
0000
1F80
30C0
4040
4000
8000
8000
8000
81F0
8040
4040
4040
3040
1FC0
ENDCHAR
STARTCHAR gbreve
ENCODING 287
SWIDTH 571 0
DWIDTH 10 0
BBX 10 14 0 -3
BITMAP
3F00
0000
3FC0
6300
4100
4100
4100
2200
7C00
4000
7F80
8040
C0C0
7F00
ENDCHAR
STARTCHAR Gdotaccent
ENCODING 288
SWIDTH 732 0
DWIDTH 12 0
BBX 12 15 1 0
BITMAP
0600
0000
1F80
30C0
4040
4000
8000
8000
8000
81F0
8040
4040
4040
3040
1FC0
ENDCHAR
STARTCHAR gdotaccent
ENCODING 289
SWIDTH 571 0
DWIDTH 10 0
BBX 10 14 0 -3
BITMAP
0C00
0000
3FC0
6300
4100
4100
4100
2200
7C00
4000
7F80
8040
C0C0
7F00
ENDCHAR
STARTCHAR Gcommaaccent
ENCODING 290
SWIDTH 732 0
DWIDTH 12 0
BBX 12 19 1 -6
BITMAP
1F80
30C0
4040
4000
8000
8000
8000
81F0
8040
4040
4040
3040
1FC0
0000
0600
0600
0200
0200
0400
ENDCHAR
STARTCHAR gcommaaccent
ENCODING 291
SWIDTH 571 0
DWIDTH 10 0
BBX 10 18 0 -3
BITMAP
0400
0800
0800
0C00
0C00
0000
3FC0
6300
4100
4100
4100
2200
7C00
4000
7F80
8040
C0C0
7F00
ENDCHAR
STARTCHAR Hcircumflex
ENCODING 292
SWIDTH 771 0
DWIDTH 13 0
BBX 13 15 0 0
BITMAP
0FC0
0000
F8F8
2020
2020
2020
2020
2020
3FE0
2020
2020
2020
2020
2020
F8F8
ENDCHAR
STARTCHAR hcircumflex
ENCODING 293
SWIDTH 633 0
DWIDTH 11 0
BBX 11 15 0 0
BITMAP
FC00
0000
E000
2000
2000
2000
2F00
3080
2080
2080
2080
2080
2080
2080
FBE0
ENDCHAR
STARTCHAR Hbar
ENCODING 294
SWIDTH 771 0
DWIDTH 13 0
BBX 13 13 0 0
BITMAP
F8F8
2020
2020
FFF8
2020
2020
3FE0
2020
2020
2020
2020
2020
F8F8
ENDCHAR
STARTCHAR hbar
ENCODING 295
SWIDTH 633 0
DWIDTH 11 0
BBX 11 13 0 0
BITMAP
E000
2000
7C00
2000
2F00
3080
2080
2080
2080
2080
2080
2080
FBE0
ENDCHAR
STARTCHAR Itilde
ENCODING 296
SWIDTH 325 0
DWIDTH 6 0
BBX 6 15 0 0
BITMAP
FC
00
F8
20
20
20
20
20
20
20
20
20
20
20
F8
ENDCHAR
STARTCHAR itilde
ENCODING 297
SWIDTH 307 0
DWIDTH 5 0
BBX 6 11 -1 0
BITMAP
FC
00
70
10
10
10
10
10
10
10
7C
ENDCHAR
STARTCHAR Imacron
ENCODING 298
SWIDTH 325 0
DWIDTH 6 0
BBX 5 15 0 0
BITMAP
F8
00
F8
20
20
20
20
20
20
20
20
20
20
20
F8
ENDCHAR
STARTCHAR imacron
ENCODING 299
SWIDTH 307 0
DWIDTH 5 0
BBX 5 11 0 0
BITMAP
F8
00
E0
20
20
20
20
20
20
20
F8
ENDCHAR
STARTCHAR Ibreve
ENCODING 300
SWIDTH 325 0
DWIDTH 6 0
BBX 6 15 0 0
BITMAP
FC
00
F8
20
20
20
20
20
20
20
20
20
20
20
F8
ENDCHAR
STARTCHAR ibreve
ENCODING 301
SWIDTH 307 0
DWIDTH 5 0
BBX 6 11 -1 0
BITMAP
FC
00
70
10
10
10
10
10
10
10
7C
ENDCHAR
STARTCHAR Iogonek
ENCODING 302
SWIDTH 325 0
DWIDTH 6 0
BBX 5 16 0 -3
BITMAP
F8
20
20
20
20
20
20
20
20
20
20
20
F8
00
00
70
ENDCHAR
STARTCHAR iogonek
ENCODING 303
SWIDTH 307 0
DWIDTH 5 0
BBX 5 16 0 -3
BITMAP
20
00
00
00
E0
20
20
20
20
20
20
20
F8
00
00
70
ENDCHAR
STARTCHAR Idotaccent
ENCODING 304
SWIDTH 325 0
DWIDTH 6 0
BBX 5 15 0 0
BITMAP
30
00
F8
20
20
20
20
20
20
20
20
20
20
20
F8
ENDCHAR
STARTCHAR dotlessi
ENCODING 305
SWIDTH 307 0
DWIDTH 5 0
BBX 5 9 0 0
BITMAP
E0
20
20
20
20
20
20
20
F8
ENDCHAR
STARTCHAR IJ
ENCODING 306
SWIDTH 731 0
DWIDTH 13 0
BBX 13 16 0 -3
BITMAP
F8F8
2020
2020
2020
2020
2020
2020
2020
2020
2020
2020
2020
F820
0220
0240
03C0
ENDCHAR
STARTCHAR ij
ENCODING 307
SWIDTH 638 0
DWIDTH 11 0
BBX 10 16 0 -3
BITMAP
2040
0000
0000
0000
E1C0
2040
2040
2040
2040
2040
2040
2040
F840
0440
0440
0780
ENDCHAR
STARTCHAR Jcircumflex
ENCODING 308
SWIDTH 422 0
DWIDTH 7 0
BBX 7 18 0 -3
BITMAP
7E
00
3E
08
08
08
08
08
08
08
08
08
08
08
08
88
90
F0
ENDCHAR
STARTCHAR jcircumflex
ENCODING 309
SWIDTH 346 0
DWIDTH 6 0
BBX 7 14 0 -3
BITMAP
7E
00
38
08
08
08
08
08
08
08
08
88
88
F0
ENDCHAR
STARTCHAR Kcommaaccent
ENCODING 310
SWIDTH 708 0
DWIDTH 12 0
BBX 12 19 0 -6
BITMAP
F9E0
20C0
2100
2200
2400
2800
3800
2C00
2600
2300
2180
20C0
F3F0
0000
0600
0600
0200
0200
0400
ENDCHAR
STARTCHAR kcommaaccent
ENCODING 311
SWIDTH 599 0
DWIDTH 10 0
BBX 10 19 0 -6
BITMAP
E000
2000
2000
2000
2380
2300
2600
2800
3800
2C00
2600
2300
F1C0
0000
0C00
0C00
0400
0400
0800
ENDCHAR
STARTCHAR kgreenlandic
ENCODING 312
SWIDTH 599 0
DWIDTH 10 0
BBX 10 9 0 0
BITMAP
2380
2300
2600
2800
3800
2C00
2600
2300
F1C0
ENDCHAR
STARTCHAR Lacute
ENCODING 313
SWIDTH 557 0
DWIDTH 9 0
BBX 9 15 0 0
BITMAP
7800
0000
F800
2000
2000
2000
2000
2000
2000
2000
2000
2000
2080
2080
FF80
ENDCHAR
STARTCHAR lacute
ENCODING 314
SWIDTH 313 0
DWIDTH 5 0
BBX 5 15 0 0
BITMAP
F0
00
E0
20
20
20
20
20
20
20
20
20
20
20
F8
ENDCHAR
STARTCHAR Lcommaaccent
ENCODING 315
SWIDTH 557 0
DWIDTH 9 0
BBX 9 19 0 -6
BITMAP
F800
2000
2000
2000
2000
2000
2000
2000
2000
2000
2080
2080
FF80
0000
0C00
0C00
0400
0400
0800
ENDCHAR
STARTCHAR lcommaaccent
ENCODING 316
SWIDTH 313 0
DWIDTH 5 0
BBX 5 19 0 -6
BITMAP
E0
20
20
20
20
20
20
20
20
20
20
20
F8
00
30
30
10
10
20
ENDCHAR
STARTCHAR Lcaron
ENCODING 317
SWIDTH 794 0
DWIDTH 13 0
BBX 12 13 0 0
BITMAP
F830
2030
2010
2010
2020
2000
2000
2000
2000
2000
2080
2080
FF80
ENDCHAR
STARTCHAR lcaron
ENCODING 318
SWIDTH 562 0
DWIDTH 9 0
BBX 8 13 0 0
BITMAP
E3
23
21
21
22
20
20
20
20
20
20
20
F8
ENDCHAR
STARTCHAR Ldot
ENCODING 319
SWIDTH 1137 0
DWIDTH 19 0
BBX 15 13 0 0
BITMAP
F800
2000
2000
2000
2000
2000
2000
2006
2000
2000
2080
2080
FF80
ENDCHAR
STARTCHAR ldot
ENCODING 320
SWIDTH 905 0
DWIDTH 15 0
BBX 11 13 0 0
BITMAP
E000
2000
2000
2000
2000
2000
2000
2060
2000
2000
2000
2000
F800
ENDCHAR
STARTCHAR Lslash
ENCODING 321
SWIDTH 557 0
DWIDTH 9 0
BBX 9 13 0 0
BITMAP
F800
2000
2000
2000
2800
3800
2000
E000
2000
2000
2080
2080
FF80
ENDCHAR
STARTCHAR lslash
ENCODING 322
SWIDTH 313 0
DWIDTH 5 0
BBX 5 13 0 0
BITMAP
E0
20
20
20
20
38
60
E0
20
20
20
20
F8
ENDCHAR
STARTCHAR Nacute
ENCODING 323
SWIDTH 751 0
DWIDTH 13 0
BBX 13 15 0 0
BITMAP
0F00
0000
E0F8
3020
3020
2820
2420
2620
2220
2120
21A0
20A0
2060
2020
F820
ENDCHAR
STARTCHAR nacute
ENCODING 324
SWIDTH 633 0
DWIDTH 11 0
BBX 11 11 0 0
BITMAP
1E00
0000
EF00
3080
2080
2080
2080
2080
2080
2080
FBE0
ENDCHAR
STARTCHAR Ncommaaccent
ENCODING 325
SWIDTH 751 0
DWIDTH 13 0
BBX 13 19 0 -6
BITMAP
E0F8
3020
3020
2820
2420
2620
2220
2120
21A0
20A0
2060
2020
F820
0000
0600
0600
0200
0200
0400
ENDCHAR
STARTCHAR ncommaaccent
ENCODING 326
SWIDTH 633 0
DWIDTH 11 0
BBX 11 15 0 -6
BITMAP
EF00
3080
2080
2080
2080
2080
2080
2080
FBE0
0000
0600
0600
0200
0200
0400
ENDCHAR
STARTCHAR Ncaron
ENCODING 327
SWIDTH 751 0
DWIDTH 13 0
BBX 13 15 0 0
BITMAP
1F80
0000
E0F8
3020
3020
2820
2420
2620
2220
2120
21A0
20A0
2060
2020
F820
ENDCHAR
STARTCHAR ncaron
ENCODING 328
SWIDTH 633 0
DWIDTH 11 0
BBX 11 11 0 0
BITMAP
3F00
0000
EF00
3080
2080
2080
2080
2080
2080
2080
FBE0
ENDCHAR
STARTCHAR napostrophe
ENCODING 329
SWIDTH 885 0
DWIDTH 15 0
BBX 14 13 1 0
BITMAP
C000
C000
4000
4000
9DE0
0610
0410
0410
0410
0410
0410
0410
1F7C
ENDCHAR
STARTCHAR Eng
ENCODING 330
SWIDTH 751 0
DWIDTH 13 0
BBX 13 16 0 -3
BITMAP
E0F8
3020
3020
2820
2420
2620
2220
2120
21A0
20A0
2060
2020
F820
0220
0220
03C0
ENDCHAR
STARTCHAR eng
ENCODING 331
SWIDTH 633 0
DWIDTH 11 0
BBX 9 12 0 -3
BITMAP
EF00
3080
2080
2080
2080
2080
2080
2080
F880
0880
0880
0F00
ENDCHAR
STARTCHAR Omacron
ENCODING 332
SWIDTH 777 0
DWIDTH 13 0
BBX 11 15 1 0
BITMAP
1F00
0000
1F00
2080
4040
C060
8020
8020
8020
8020
8020
C060
4040
2080
1F00
ENDCHAR
STARTCHAR omacron
ENCODING 333
SWIDTH 602 0
DWIDTH 10 0
BBX 9 11 1 0
BITMAP
3E00
0000
3E00
6300
C180
8080
8080
8080
C180
6300
3E00
ENDCHAR
STARTCHAR Obreve
ENCODING 334
SWIDTH 777 0
DWIDTH 13 0
BBX 11 15 1 0
BITMAP
1F80
0000
1F00
2080
4040
C060
8020
8020
8020
8020
8020
C060
4040
2080
1F00
ENDCHAR
STARTCHAR obreve
ENCODING 335
SWIDTH 602 0
DWIDTH 10 0
BBX 9 11 1 0
BITMAP
3F00
0000
3E00
6300
C180
8080
8080
8080
C180
6300
3E00
ENDCHAR
STARTCHAR Ohungarumlaut
ENCODING 336
SWIDTH 777 0
DWIDTH 13 0
BBX 11 15 1 0
BITMAP
1F00
0000
1F00
2080
4040
C060
8020
8020
8020
8020
8020
C060
4040
2080
1F00
ENDCHAR
STARTCHAR ohungarumlaut
ENCODING 337
SWIDTH 602 0
DWIDTH 10 0
BBX 9 11 1 0
BITMAP
3E00
0000
3E00
6300
C180
8080
8080
8080
C180
6300
3E00
ENDCHAR
STARTCHAR OE
ENCODING 338
SWIDTH 1014 0
DWIDTH 17 0
BBX 16 13 1 0
BITMAP
1F7F
30C1
4041
4040
8040
8042
807E
8042
8040
4040
4041
20C1
1F7F
ENDCHAR
STARTCHAR oe
ENCODING 339
SWIDTH 908 0
DWIDTH 15 0
BBX 14 9 1 0
BITMAP
3C70
4288
C104
8104
81FC
8100
8100
4284
3C78
ENDCHAR
STARTCHAR Racute
ENCODING 340
SWIDTH 679 0
DWIDTH 11 0
BBX 11 15 0 0
BITMAP
1E00
0000
FE00
2180
2080
2080
2080
2100
3E00
2200
2200
2100
2100
2080
F0E0
ENDCHAR
STARTCHAR racute
ENCODING 341
SWIDTH 440 0
DWIDTH 7 0
BBX 6 11 1 0
BITMAP
78
00
EC
34
24
20
20
20
20
20
F8
ENDCHAR
STARTCHAR Rcommaaccent
ENCODING 342
SWIDTH 679 0
DWIDTH 11 0
BBX 11 19 0 -6
BITMAP
FE00
2180
2080
2080
2080
2100
3E00
2200
2200
2100
2100
2080
F0E0
0000
0C00
0C00
0400
0400
0800
ENDCHAR
STARTCHAR rcommaaccent
ENCODING 343
SWIDTH 440 0
DWIDTH 7 0
BBX 6 15 1 -6
BITMAP
EC
34
24
20
20
20
20
20
F8
00
30
30
10
10
20
ENDCHAR
STARTCHAR Rcaron
ENCODING 344
SWIDTH 679 0
DWIDTH 11 0
BBX 11 15 0 0
BITMAP
3F00
0000
FE00
2180
2080
2080
2080
2100
3E00
2200
2200
2100
2100
2080
F0E0
ENDCHAR
STARTCHAR rcaron
ENCODING 345
SWIDTH 440 0
DWIDTH 7 0
BBX 6 11 1 0
BITMAP
FC
00
EC
34
24
20
20
20
20
20
F8
ENDCHAR
STARTCHAR Sacute
ENCODING 346
SWIDTH 542 0
DWIDTH 9 0
BBX 7 15 1 0
BITMAP
3C
00
3E
42
82
80
C0
60
18
04
02
02
82
84
F8
ENDCHAR
STARTCHAR sacute
ENCODING 347
SWIDTH 504 0
DWIDTH 9 0
BBX 6 11 1 0
BITMAP
78
00
7C
84
84
C0
30
0C
84
84
F8
ENDCHAR
STARTCHAR Scircumflex
ENCODING 348
SWIDTH 542 0
DWIDTH 9 0
BBX 7 15 1 0
BITMAP
7E
00
3E
42
82
80
C0
60
18
04
02
02
82
84
F8
ENDCHAR
STARTCHAR scircumflex
ENCODING 349
SWIDTH 504 0
DWIDTH 9 0
BBX 6 11 1 0
BITMAP
FC
00
7C
84
84
C0
30
0C
84
84
F8
ENDCHAR
STARTCHAR Scedilla
ENCODING 350
SWIDTH 542 0
DWIDTH 9 0
BBX 7 16 1 -3
BITMAP
3E
42
82
80
C0
60
18
04
02
02
82
84
F8
30
18
38
ENDCHAR
STARTCHAR scedilla
ENCODING 351
SWIDTH 504 0
DWIDTH 9 0
BBX 6 12 1 -3
BITMAP
7C
84
84
C0
30
0C
84
84
F8
30
18
38
ENDCHAR
STARTCHAR Scaron
ENCODING 352
SWIDTH 542 0
DWIDTH 9 0
BBX 7 15 1 0
BITMAP
FC
00
3E
42
82
80
C0
60
18
04
02
02
82
84
F8
ENDCHAR
STARTCHAR scaron
ENCODING 353
SWIDTH 504 0
DWIDTH 9 0
BBX 6 11 1 0
BITMAP
FC
00
7C
84
84
C0
30
0C
84
84
F8
ENDCHAR
STARTCHAR Tcommaaccent
ENCODING 354
SWIDTH 663 0
DWIDTH 11 0
BBX 11 16 0 -3
BITMAP
FFE0
0400
0400
0400
0400
0400
0400
0400
0400
0400
0400
0400
1F00
0C00
0600
0E00
ENDCHAR
STARTCHAR tcommaaccent
ENCODING 355
SWIDTH 392 0
DWIDTH 7 0
BBX 5 15 1 -3
BITMAP
40
40
40
F8
40
40
40
40
40
40
40
38
60
30
70
ENDCHAR
STARTCHAR Tcaron
ENCODING 356
SWIDTH 663 0
DWIDTH 11 0
BBX 11 15 0 0
BITMAP
1F80
0000
FFE0
0400
0400
0400
0400
0400
0400
0400
0400
0400
0400
0400
1F00
ENDCHAR
STARTCHAR tcaron
ENCODING 357
SWIDTH 637 0
DWIDTH 11 0
BBX 9 13 1 0
BITMAP
0180
4180
4080
4080
F900
4000
4000
4000
4000
4000
4000
4000
3800
ENDCHAR
STARTCHAR Tbar
ENCODING 358
SWIDTH 663 0
DWIDTH 11 0
BBX 11 13 0 0
BITMAP
FFE0
0400
0400
0400
0400
0400
1F00
0400
0400
0400
0400
0400
1F00
ENDCHAR
STARTCHAR tbar
ENCODING 359
SWIDTH 392 0
DWIDTH 7 0
BBX 5 12 1 0
BITMAP
40
40
40
F8
40
40
40
F8
40
40
40
38
ENDCHAR
STARTCHAR Utilde
ENCODING 360
SWIDTH 719 0
DWIDTH 12 0
BBX 13 15 0 0
BITMAP
0FC0
0000
F8F8
2020
2020
2020
2020
2020
2020
2020
2020
2020
2020
1040
0F80
ENDCHAR
STARTCHAR utilde
ENCODING 361
SWIDTH 633 0
DWIDTH 11 0
BBX 11 11 0 0
BITMAP
3F00
0000
E380
2080
2080
2080
2080
2080
2080
2180
1EE0
ENDCHAR
STARTCHAR Umacron
ENCODING 362
SWIDTH 719 0
DWIDTH 12 0
BBX 13 15 0 0
BITMAP
0F80
0000
F8F8
2020
2020
2020
2020
2020
2020
2020
2020
2020
2020
1040
0F80
ENDCHAR
STARTCHAR umacron
ENCODING 363
SWIDTH 633 0
DWIDTH 11 0
BBX 11 11 0 0
BITMAP
1F00
0000
E380
2080
2080
2080
2080
2080
2080
2180
1EE0
ENDCHAR
STARTCHAR Ubreve
ENCODING 364
SWIDTH 719 0
DWIDTH 12 0
BBX 13 15 0 0
BITMAP
0FC0
0000
F8F8
2020
2020
2020
2020
2020
2020
2020
2020
2020
2020
1040
0F80
ENDCHAR
STARTCHAR ubreve
ENCODING 365
SWIDTH 633 0
DWIDTH 11 0
BBX 11 11 0 0
BITMAP
3F00
0000
E380
2080
2080
2080
2080
2080
2080
2180
1EE0
ENDCHAR
STARTCHAR Uring
ENCODING 366
SWIDTH 719 0
DWIDTH 12 0
BBX 13 16 0 0
BITMAP
0700
0700
0000
F8F8
2020
2020
2020
2020
2020
2020
2020
2020
2020
2020
1040
0F80
ENDCHAR
STARTCHAR uring
ENCODING 367
SWIDTH 633 0
DWIDTH 11 0
BBX 11 12 0 0
BITMAP
0E00
0E00
0000
E380
2080
2080
2080
2080
2080
2080
2180
1EE0
ENDCHAR
STARTCHAR Uhungarumlaut
ENCODING 368
SWIDTH 719 0
DWIDTH 12 0
BBX 13 15 0 0
BITMAP
0F80
0000
F8F8
2020
2020
2020
2020
2020
2020
2020
2020
2020
2020
1040
0F80
ENDCHAR
STARTCHAR uhungarumlaut
ENCODING 369
SWIDTH 633 0
DWIDTH 11 0
BBX 11 11 0 0
BITMAP
1F00
0000
E380
2080
2080
2080
2080
2080
2080
2180
1EE0
ENDCHAR
STARTCHAR Uogonek
ENCODING 370
SWIDTH 719 0
DWIDTH 12 0
BBX 13 16 0 -3
BITMAP
F8F8
2020
2020
2020
2020
2020
2020
2020
2020
2020
2020
1040
0F80
0000
0000
0700
ENDCHAR
STARTCHAR uogonek
ENCODING 371
SWIDTH 633 0
DWIDTH 11 0
BBX 11 12 0 -3
BITMAP
E380
2080
2080
2080
2080
2080
2080
2180
1EE0
0000
0000
0700
ENDCHAR
STARTCHAR Wcircumflex
ENCODING 372
SWIDTH 925 0
DWIDTH 16 0
BBX 16 15 0 0
BITMAP
07E0
0000
F087
6182
2182
2184
21C4
1244
1248
1248
1428
0C30
0C30
0810
0810
ENDCHAR
STARTCHAR wcircumflex
ENCODING 373
SWIDTH 795 0
DWIDTH 14 0
BBX 14 11 0 0
BITMAP
0FC0
0000
F11C
6308
2308
2298
2490
14D0
1860
1860
1020
ENDCHAR
STARTCHAR Ycircumflex
ENCODING 374
SWIDTH 678 0
DWIDTH 12 0
BBX 11 15 0 0
BITMAP
3F00
0000
F8E0
3040
3080
1080
0900
0A00
0600
0400
0400
0400
0400
0400
1F00
ENDCHAR
STARTCHAR ycircumflex
ENCODING 375
SWIDTH 551 0
DWIDTH 9 0
BBX 9 14 0 -3
BITMAP
3F00
0000
F380
6100
2100
2300
1200
1200
1C00
0C00
0800
0800
1000
7000
ENDCHAR
STARTCHAR Ydieresis
ENCODING 376
SWIDTH 678 0
DWIDTH 12 0
BBX 11 15 0 0
BITMAP
1B00
0000
F8E0
3040
3080
1080
0900
0A00
0600
0400
0400
0400
0400
0400
1F00
ENDCHAR
STARTCHAR Zacute
ENCODING 377
SWIDTH 633 0
DWIDTH 11 0
BBX 8 15 1 0
BITMAP
3C
00
FF
82
86
04
0C
08
10
10
20
20
41
41
FF
ENDCHAR
STARTCHAR zacute
ENCODING 378
SWIDTH 595 0
DWIDTH 10 0
BBX 8 11 1 0
BITMAP
3C
00
FF
86
04
08
10
30
20
41
FF
ENDCHAR
STARTCHAR Zdotaccent
ENCODING 379
SWIDTH 633 0
DWIDTH 11 0
BBX 8 15 1 0
BITMAP
18
00
FF
82
86
04
0C
08
10
10
20
20
41
41
FF
ENDCHAR
STARTCHAR zdotaccent
ENCODING 380
SWIDTH 595 0
DWIDTH 10 0
BBX 8 11 1 0
BITMAP
18
00
FF
86
04
08
10
30
20
41
FF
ENDCHAR
STARTCHAR Zcaron
ENCODING 381
SWIDTH 633 0
DWIDTH 11 0
BBX 8 15 1 0
BITMAP
7E
00
FF
82
86
04
0C
08
10
10
20
20
41
41
FF
ENDCHAR
STARTCHAR zcaron
ENCODING 382
SWIDTH 595 0
DWIDTH 10 0
BBX 8 11 1 0
BITMAP
7E
00
FF
86
04
08
10
30
20
41
FF
ENDCHAR
STARTCHAR uni0186
ENCODING 390
SWIDTH 695 0
DWIDTH 12 0
BBX 10 13 1 0
BITMAP
7E00
8300
0080
0080
0040
0040
0040
0040
0040
0080
8080
C300
FE00
ENDCHAR
STARTCHAR uni0189
ENCODING 393
SWIDTH 768 0
DWIDTH 13 0
BBX 12 13 0 0
BITMAP
FF80
20C0
2020
2010
2010
2010
FC10
2010
2010
2010
2020
2040
FF80
ENDCHAR
STARTCHAR uni018E
ENCODING 398
SWIDTH 566 0
DWIDTH 10 0
BBX 10 13 0 0
BITMAP
FFC0
8100
8100
0100
0100
2100
3F00
2100
0100
0100
0100
8100
FFC0
ENDCHAR
STARTCHAR florin
ENCODING 402
SWIDTH 608 0
DWIDTH 10 0
BBX 8 16 2 -3
BITMAP
07
09
11
10
20
20
F8
20
60
60
60
60
40
C0
C0
C0
ENDCHAR
STARTCHAR uni0197
ENCODING 407
SWIDTH 325 0
DWIDTH 6 0
BBX 5 13 0 0
BITMAP
F8
20
20
20
20
20
F8
20
20
20
20
20
F8
ENDCHAR
STARTCHAR uni019A
ENCODING 410
SWIDTH 313 0
DWIDTH 5 0
BBX 5 13 0 0
BITMAP
E0
20
20
20
20
20
F8
20
20
20
20
20
F8
ENDCHAR
STARTCHAR uni019D
ENCODING 413
SWIDTH 751 0
DWIDTH 13 0
BBX 15 16 -2 -3
BITMAP
383E
0C08
0C08
0A08
0908
0988
0888
0848
0868
0828
0818
0808
0808
8800
8800
F000
ENDCHAR
STARTCHAR uni019F
ENCODING 415
SWIDTH 777 0
DWIDTH 13 0
BBX 11 13 1 0
BITMAP
1F00
2080
4040
C060
8020
8020
FFE0
8020
8020
C060
4040
2080
1F00
ENDCHAR
STARTCHAR Ohorn
ENCODING 416
SWIDTH 777 0
DWIDTH 13 0
BBX 12 13 1 0
BITMAP
1F30
20B0
4050
C070
8020
8020
8020
8020
8020
C060
4040
2080
1F00
ENDCHAR
STARTCHAR ohorn
ENCODING 417
SWIDTH 602 0
DWIDTH 10 0
BBX 10 9 1 0
BITMAP
3EC0
63C0
C1C0
80C0
8080
8080
C180
6300
3E00
ENDCHAR
STARTCHAR uni01A7
ENCODING 423
SWIDTH 542 0
DWIDTH 9 0
BBX 7 13 1 0
BITMAP
F8
84
82
02
06
0C
30
40
80
80
82
42
3E
ENDCHAR
STARTCHAR uni01A8
ENCODING 424
SWIDTH 504 0
DWIDTH 9 0
BBX 6 9 1 0
BITMAP
F8
84
84
0C
30
C0
84
84
7C
ENDCHAR
STARTCHAR uni01AE
ENCODING 430
SWIDTH 663 0
DWIDTH 11 0
BBX 11 16 0 -3
BITMAP
FFE0
0400
0400
0400
0400
0400
0400
0400
0400
0400
0400
0400
0400
0440
0440
03C0
ENDCHAR
STARTCHAR Uhorn
ENCODING 431
SWIDTH 719 0
DWIDTH 12 0
BBX 14 13 0 0
BITMAP
F8FC
202C
2024
2024
2028
2020
2020
2020
2020
2020
2020
1040
0F80
ENDCHAR
STARTCHAR uhorn
ENCODING 432
SWIDTH 633 0
DWIDTH 11 0
BBX 12 9 0 0
BITMAP
E3B0
20B0
2090
2090
20A0
2080
2080
2180
1EE0
ENDCHAR
STARTCHAR uni01B5
ENCODING 437
SWIDTH 633 0
DWIDTH 11 0
BBX 8 13 1 0
BITMAP
FF
82
86
04
0C
08
3E
10
20
20
41
41
FF
ENDCHAR
STARTCHAR uni01B6
ENCODING 438
SWIDTH 595 0
DWIDTH 10 0
BBX 8 9 1 0
BITMAP
FF
86
04
08
3E
30
20
41
FF
ENDCHAR
STARTCHAR uni01BB
ENCODING 443
SWIDTH 608 0
DWIDTH 10 0
BBX 7 13 2 0
BITMAP
78
84
82
02
02
06
FE
18
30
60
40
80
FE
ENDCHAR
STARTCHAR uni01BC
ENCODING 444
SWIDTH 608 0
DWIDTH 10 0
BBX 6 13 2 0
BITMAP
FC
80
80
80
F0
18
04
04
04
04
84
88
F0
ENDCHAR
STARTCHAR uni01C0
ENCODING 448
SWIDTH 241 0
DWIDTH 4 0
BBX 1 16 2 -3
BITMAP
80
80
80
80
80
80
80
80
80
80
80
80
80
80
80
80
ENDCHAR
STARTCHAR uni01C2
ENCODING 450
SWIDTH 608 0
DWIDTH 10 0
BBX 10 16 0 -3
BITMAP
0400
0400
0400
0400
0400
0400
FFC0
0400
0400
FFC0
0400
0400
0400
0400
0400
0400
ENDCHAR
STARTCHAR uni01C3
ENCODING 451
SWIDTH 265 0
DWIDTH 4 0
BBX 2 13 3 0
BITMAP
40
40
40
40
40
40
80
80
80
80
00
00
40
ENDCHAR
STARTCHAR uni01CD
ENCODING 461
SWIDTH 744 0
DWIDTH 13 0
BBX 13 15 0 0
BITMAP
1F80
0000
0200
0600
0600
0500
0900
0880
1080
1080
3FC0
2040
2020
4020
E0F8
ENDCHAR
STARTCHAR uni01CE
ENCODING 462
SWIDTH 543 0
DWIDTH 9 0
BBX 8 11 1 0
BITMAP
7E
00
7C
86
82
02
3E
C2
82
C2
7F
ENDCHAR
STARTCHAR uni01CF
ENCODING 463
SWIDTH 325 0
DWIDTH 6 0
BBX 6 15 0 0
BITMAP
FC
00
F8
20
20
20
20
20
20
20
20
20
20
20
F8
ENDCHAR
STARTCHAR uni01D0
ENCODING 464
SWIDTH 307 0
DWIDTH 5 0
BBX 6 11 -1 0
BITMAP
FC
00
70
10
10
10
10
10
10
10
7C
ENDCHAR
STARTCHAR uni01D1
ENCODING 465
SWIDTH 777 0
DWIDTH 13 0
BBX 11 15 1 0
BITMAP
1F80
0000
1F00
2080
4040
C060
8020
8020
8020
8020
8020
C060
4040
2080
1F00
ENDCHAR
STARTCHAR uni01D2
ENCODING 466
SWIDTH 602 0
DWIDTH 10 0
BBX 9 11 1 0
BITMAP
3F00
0000
3E00
6300
C180
8080
8080
8080
C180
6300
3E00
ENDCHAR
STARTCHAR uni01D3
ENCODING 467
SWIDTH 719 0
DWIDTH 12 0
BBX 13 15 0 0
BITMAP
0FC0
0000
F8F8
2020
2020
2020
2020
2020
2020
2020
2020
2020
2020
1040
0F80
ENDCHAR
STARTCHAR uni01D4
ENCODING 468
SWIDTH 633 0
DWIDTH 11 0
BBX 11 11 0 0
BITMAP
3F00
0000
E380
2080
2080
2080
2080
2080
2080
2180
1EE0
ENDCHAR
STARTCHAR uni01D5
ENCODING 469
SWIDTH 719 0
DWIDTH 12 0
BBX 13 17 0 0
BITMAP
0F80
0000
0D80
0000
F8F8
2020
2020
2020
2020
2020
2020
2020
2020
2020
2020
1040
0F80
ENDCHAR
STARTCHAR uni01D6
ENCODING 470
SWIDTH 633 0
DWIDTH 11 0
BBX 11 13 0 0
BITMAP
1F00
0000
1B00
0000
E380
2080
2080
2080
2080
2080
2080
2180
1EE0
ENDCHAR
STARTCHAR uni01D7
ENCODING 471
SWIDTH 719 0
DWIDTH 12 0
BBX 13 17 0 0
BITMAP
0780
0000
0D80
0000
F8F8
2020
2020
2020
2020
2020
2020
2020
2020
2020
2020
1040
0F80
ENDCHAR
STARTCHAR uni01D8
ENCODING 472
SWIDTH 633 0
DWIDTH 11 0
BBX 11 13 0 0
BITMAP
1E00
0000
1B00
0000
E380
2080
2080
2080
2080
2080
2080
2180
1EE0
ENDCHAR
STARTCHAR uni01D9
ENCODING 473
SWIDTH 719 0
DWIDTH 12 0
BBX 13 17 0 0
BITMAP
0FC0
0000
0D80
0000
F8F8
2020
2020
2020
2020
2020
2020
2020
2020
2020
2020
1040
0F80
ENDCHAR
STARTCHAR uni01DA
ENCODING 474
SWIDTH 633 0
DWIDTH 11 0
BBX 11 13 0 0
BITMAP
3F00
0000
1B00
0000
E380
2080
2080
2080
2080
2080
2080
2180
1EE0
ENDCHAR
STARTCHAR uni01DB
ENCODING 475
SWIDTH 719 0
DWIDTH 12 0
BBX 13 17 0 0
BITMAP
0780
0000
0D80
0000
F8F8
2020
2020
2020
2020
2020
2020
2020
2020
2020
2020
1040
0F80
ENDCHAR
STARTCHAR uni01DC
ENCODING 476
SWIDTH 633 0
DWIDTH 11 0
BBX 11 13 0 0
BITMAP
1E00
0000
1B00
0000
E380
2080
2080
2080
2080
2080
2080
2180
1EE0
ENDCHAR
STARTCHAR uni01DD
ENCODING 477
SWIDTH 530 0
DWIDTH 9 0
BBX 7 9 1 0
BITMAP
78
84
02
02
FE
82
82
44
38
ENDCHAR
STARTCHAR uni01DE
ENCODING 478
SWIDTH 744 0
DWIDTH 13 0
BBX 13 17 0 0
BITMAP
0F80
0000
0D80
0000
0200
0600
0600
0500
0900
0880
1080
1080
3FC0
2040
2020
4020
E0F8
ENDCHAR
STARTCHAR uni01DF
ENCODING 479
SWIDTH 543 0
DWIDTH 9 0
BBX 8 13 1 0
BITMAP
7C
00
6C
00
7C
86
82
02
3E
C2
82
C2
7F
ENDCHAR
STARTCHAR uni01E0
ENCODING 480
SWIDTH 744 0
DWIDTH 13 0
BBX 13 17 0 0
BITMAP
0F80
0000
0600
0000
0200
0600
0600
0500
0900
0880
1080
1080
3FC0
2040
2020
4020
E0F8
ENDCHAR
STARTCHAR uni01E1
ENCODING 481
SWIDTH 543 0
DWIDTH 9 0
BBX 8 13 1 0
BITMAP
7C
00
18
00
7C
86
82
02
3E
C2
82
C2
7F
ENDCHAR
STARTCHAR uni01E2
ENCODING 482
SWIDTH 919 0
DWIDTH 16 0
BBX 15 15 0 0
BITMAP
01F0
0000
00FE
0182
0380
0280
0480
0C84
08FC
1080
1F80
2080
6080
4082
E3FE
ENDCHAR
STARTCHAR uni01E3
ENCODING 483
SWIDTH 819 0
DWIDTH 14 0
BBX 12 11 1 0
BITMAP
1F00
0000
79C0
8E20
8410
0410
3FF0
C400
8400
8610
79E0
ENDCHAR
STARTCHAR uni01E4
ENCODING 484
SWIDTH 732 0
DWIDTH 12 0
BBX 13 13 1 0
BITMAP
1F80
30C0
4040
4000
8000
8000
8000
81F0
8040
40F8
4040
3040
1FC0
ENDCHAR
STARTCHAR uni01E5
ENCODING 485
SWIDTH 571 0
DWIDTH 10 0
BBX 10 12 0 -3
BITMAP
3FC0
6300
4100
4100
4100
2200
7C00
4000
7F80
FFC0
C0C0
7F00
ENDCHAR
STARTCHAR Gcaron
ENCODING 486
SWIDTH 732 0
DWIDTH 12 0
BBX 12 15 1 0
BITMAP
1F80
0000
1F80
30C0
4040
4000
8000
8000
8000
81F0
8040
4040
4040
3040
1FC0
ENDCHAR
STARTCHAR gcaron
ENCODING 487
SWIDTH 571 0
DWIDTH 10 0
BBX 10 14 0 -3
BITMAP
3F00
0000
3FC0
6300
4100
4100
4100
2200
7C00
4000
7F80
8040
C0C0
7F00
ENDCHAR
STARTCHAR uni01E8
ENCODING 488
SWIDTH 708 0
DWIDTH 12 0
BBX 12 15 0 0
BITMAP
1F80
0000
F9E0
20C0
2100
2200
2400
2800
3800
2C00
2600
2300
2180
20C0
F3F0
ENDCHAR
STARTCHAR uni01E9
ENCODING 489
SWIDTH 599 0
DWIDTH 10 0
BBX 10 15 0 0
BITMAP
FC00
0000
E000
2000
2000
2000
2380
2300
2600
2800
3800
2C00
2600
2300
F1C0
ENDCHAR
STARTCHAR uni01EA
ENCODING 490
SWIDTH 777 0
DWIDTH 13 0
BBX 11 16 1 -3
BITMAP
1F00
2080
4040
C060
8020
8020
8020
8020
8020
C060
4040
2080
1F00
0000
0000
0E00
ENDCHAR
STARTCHAR uni01EB
ENCODING 491
SWIDTH 602 0
DWIDTH 10 0
BBX 9 12 1 -3
BITMAP
3E00
6300
C180
8080
8080
8080
C180
6300
3E00
0000
0000
1C00
ENDCHAR
STARTCHAR uni01EC
ENCODING 492
SWIDTH 777 0
DWIDTH 13 0
BBX 11 18 1 -3
BITMAP
1F00
0000
1F00
2080
4040
C060
8020
8020
8020
8020
8020
C060
4040
2080
1F00
0000
0000
0E00
ENDCHAR
STARTCHAR uni01ED
ENCODING 493
SWIDTH 602 0
DWIDTH 10 0
BBX 9 14 1 -3
BITMAP
3E00
0000
3E00
6300
C180
8080
8080
8080
C180
6300
3E00
0000
0000
1C00
ENDCHAR
STARTCHAR uni01F0
ENCODING 496
SWIDTH 346 0
DWIDTH 6 0
BBX 7 14 0 -3
BITMAP
7E
00
38
08
08
08
08
08
08
08
08
88
88
F0
ENDCHAR
STARTCHAR uni01F4
ENCODING 500
SWIDTH 732 0
DWIDTH 12 0
BBX 12 15 1 0
BITMAP
0F00
0000
1F80
30C0
4040
4000
8000
8000
8000
81F0
8040
4040
4040
3040
1FC0
ENDCHAR
STARTCHAR uni01F5
ENCODING 501
SWIDTH 571 0
DWIDTH 10 0
BBX 10 14 0 -3
BITMAP
1E00
0000
3FC0
6300
4100
4100
4100
2200
7C00
4000
7F80
8040
C0C0
7F00
ENDCHAR
STARTCHAR uni01F8
ENCODING 504
SWIDTH 751 0
DWIDTH 13 0
BBX 13 15 0 0
BITMAP
0F00
0000
E0F8
3020
3020
2820
2420
2620
2220
2120
21A0
20A0
2060
2020
F820
ENDCHAR
STARTCHAR uni01F9
ENCODING 505
SWIDTH 633 0
DWIDTH 11 0
BBX 11 11 0 0
BITMAP
1E00
0000
EF00
3080
2080
2080
2080
2080
2080
2080
FBE0
ENDCHAR
STARTCHAR Aringacute
ENCODING 506
SWIDTH 744 0
DWIDTH 13 0
BBX 13 18 0 0
BITMAP
0F00
0000
0700
0700
0000
0200
0600
0600
0500
0900
0880
1080
1080
3FC0
2040
2020
4020
E0F8
ENDCHAR
STARTCHAR aringacute
ENCODING 507
SWIDTH 543 0
DWIDTH 9 0
BBX 8 14 1 0
BITMAP
3C
00
38
38
00
7C
86
82
02
3E
C2
82
C2
7F
ENDCHAR
STARTCHAR AEacute
ENCODING 508
SWIDTH 919 0
DWIDTH 16 0
BBX 15 15 0 0
BITMAP
01E0
0000
00FE
0182
0380
0280
0480
0C84
08FC
1080
1F80
2080
6080
4082
E3FE
ENDCHAR
STARTCHAR aeacute
ENCODING 509
SWIDTH 819 0
DWIDTH 14 0
BBX 12 11 1 0
BITMAP
0F00
0000
79C0
8E20
8410
0410
3FF0
C400
8400
8610
79E0
ENDCHAR
STARTCHAR Oslashacute
ENCODING 510
SWIDTH 777 0
DWIDTH 13 0
BBX 11 15 1 0
BITMAP
0F00
0000
1F20
20E0
4060
C0E0
8120
8220
8420
8820
9020
E060
C040
E180
9F00
ENDCHAR
STARTCHAR oslashacute
ENCODING 511
SWIDTH 602 0
DWIDTH 10 0
BBX 9 11 1 0
BITMAP
1E00
0000
3E80
6180
C380
8680
8880
B080
E180
C300
BE00
ENDCHAR
STARTCHAR uni0200
ENCODING 512
SWIDTH 744 0
DWIDTH 13 0
BBX 13 15 0 0
BITMAP
0F80
0000
0200
0600
0600
0500
0900
0880
1080
1080
3FC0
2040
2020
4020
E0F8
ENDCHAR
STARTCHAR uni0201
ENCODING 513
SWIDTH 543 0
DWIDTH 9 0
BBX 8 11 1 0
BITMAP
7C
00
7C
86
82
02
3E
C2
82
C2
7F
ENDCHAR
STARTCHAR uni0202
ENCODING 514
SWIDTH 744 0
DWIDTH 13 0
BBX 13 15 0 0
BITMAP
1F80
0000
0200
0600
0600
0500
0900
0880
1080
1080
3FC0
2040
2020
4020
E0F8
ENDCHAR
STARTCHAR uni0203
ENCODING 515
SWIDTH 543 0
DWIDTH 9 0
BBX 8 11 1 0
BITMAP
7E
00
7C
86
82
02
3E
C2
82
C2
7F
ENDCHAR
STARTCHAR uni0204
ENCODING 516
SWIDTH 566 0
DWIDTH 10 0
BBX 10 15 0 0
BITMAP
3E00
0000
FFC0
2040
2000
2000
2000
2100
3F00
2100
2000
2000
2040
2040
FFC0
ENDCHAR
STARTCHAR uni0205
ENCODING 517
SWIDTH 530 0
DWIDTH 9 0
BBX 7 11 1 0
BITMAP
7C
00
38
44
82
82
FE
80
80
42
3C
ENDCHAR
STARTCHAR uni0206
ENCODING 518
SWIDTH 566 0
DWIDTH 10 0
BBX 10 15 0 0
BITMAP
3F00
0000
FFC0
2040
2000
2000
2000
2100
3F00
2100
2000
2000
2040
2040
FFC0
ENDCHAR
STARTCHAR uni0207
ENCODING 519
SWIDTH 530 0
DWIDTH 9 0
BBX 7 11 1 0
BITMAP
7E
00
38
44
82
82
FE
80
80
42
3C
ENDCHAR
STARTCHAR uni0208
ENCODING 520
SWIDTH 325 0
DWIDTH 6 0
BBX 5 15 0 0
BITMAP
F8
00
F8
20
20
20
20
20
20
20
20
20
20
20
F8
ENDCHAR
STARTCHAR uni0209
ENCODING 521
SWIDTH 307 0
DWIDTH 5 0
BBX 5 11 0 0
BITMAP
F8
00
E0
20
20
20
20
20
20
20
F8
ENDCHAR
STARTCHAR uni020A
ENCODING 522
SWIDTH 325 0
DWIDTH 6 0
BBX 6 15 0 0
BITMAP
FC
00
F8
20
20
20
20
20
20
20
20
20
20
20
F8
ENDCHAR
STARTCHAR uni020B
ENCODING 523
SWIDTH 307 0
DWIDTH 5 0
BBX 6 11 -1 0
BITMAP
FC
00
70
10
10
10
10
10
10
10
7C
ENDCHAR
STARTCHAR uni020C
ENCODING 524
SWIDTH 777 0
DWIDTH 13 0
BBX 11 15 1 0
BITMAP
1F00
0000
1F00
2080
4040
C060
8020
8020
8020
8020
8020
C060
4040
2080
1F00
ENDCHAR
STARTCHAR uni020D
ENCODING 525
SWIDTH 602 0
DWIDTH 10 0
BBX 9 11 1 0
BITMAP
3E00
0000
3E00
6300
C180
8080
8080
8080
C180
6300
3E00
ENDCHAR
STARTCHAR uni020E
ENCODING 526
SWIDTH 777 0
DWIDTH 13 0
BBX 11 15 1 0
BITMAP
1F80
0000
1F00
2080
4040
C060
8020
8020
8020
8020
8020
C060
4040
2080
1F00
ENDCHAR
STARTCHAR uni020F
ENCODING 527
SWIDTH 602 0
DWIDTH 10 0
BBX 9 11 1 0
BITMAP
3F00
0000
3E00
6300
C180
8080
8080
8080
C180
6300
3E00
ENDCHAR
STARTCHAR uni0210
ENCODING 528
SWIDTH 679 0
DWIDTH 11 0
BBX 11 15 0 0
BITMAP
3E00
0000
FE00
2180
2080
2080
2080
2100
3E00
2200
2200
2100
2100
2080
F0E0
ENDCHAR
STARTCHAR uni0211
ENCODING 529
SWIDTH 440 0
DWIDTH 7 0
BBX 6 11 1 0
BITMAP
7C
00
EC
34
24
20
20
20
20
20
F8
ENDCHAR
STARTCHAR uni0212
ENCODING 530
SWIDTH 679 0
DWIDTH 11 0
BBX 11 15 0 0
BITMAP
3F00
0000
FE00
2180
2080
2080
2080
2100
3E00
2200
2200
2100
2100
2080
F0E0
ENDCHAR
STARTCHAR uni0213
ENCODING 531
SWIDTH 440 0
DWIDTH 7 0
BBX 6 11 1 0
BITMAP
FC
00
EC
34
24
20
20
20
20
20
F8
ENDCHAR
STARTCHAR uni0214
ENCODING 532
SWIDTH 719 0
DWIDTH 12 0
BBX 13 15 0 0
BITMAP
0F80
0000
F8F8
2020
2020
2020
2020
2020
2020
2020
2020
2020
2020
1040
0F80
ENDCHAR
STARTCHAR uni0215
ENCODING 533
SWIDTH 633 0
DWIDTH 11 0
BBX 11 11 0 0
BITMAP
1F00
0000
E380
2080
2080
2080
2080
2080
2080
2180
1EE0
ENDCHAR
STARTCHAR uni0216
ENCODING 534
SWIDTH 719 0
DWIDTH 12 0
BBX 13 15 0 0
BITMAP
0FC0
0000
F8F8
2020
2020
2020
2020
2020
2020
2020
2020
2020
2020
1040
0F80
ENDCHAR
STARTCHAR uni0217
ENCODING 535
SWIDTH 633 0
DWIDTH 11 0
BBX 11 11 0 0
BITMAP
3F00
0000
E380
2080
2080
2080
2080
2080
2080
2180
1EE0
ENDCHAR
STARTCHAR Scommaaccent
ENCODING 536
SWIDTH 542 0
DWIDTH 9 0
BBX 7 19 1 -6
BITMAP
3E
42
82
80
C0
60
18
04
02
02
82
84
F8
00
30
30
10
10
20
ENDCHAR
STARTCHAR scommaaccent
ENCODING 537
SWIDTH 504 0
DWIDTH 9 0
BBX 6 15 1 -6
BITMAP
7C
84
84
C0
30
0C
84
84
F8
00
30
30
10
10
20
ENDCHAR
STARTCHAR Tcommaaccent
ENCODING 538
SWIDTH 663 0
DWIDTH 11 0
BBX 11 19 0 -6
BITMAP
FFE0
0400
0400
0400
0400
0400
0400
0400
0400
0400
0400
0400
1F00
0000
0600
0600
0200
0200
0400
ENDCHAR
STARTCHAR tcommaaccent
ENCODING 539
SWIDTH 392 0
DWIDTH 7 0
BBX 5 18 1 -6
BITMAP
40
40
40
F8
40
40
40
40
40
40
40
38
00
30
30
10
10
20
ENDCHAR
STARTCHAR uni021E
ENCODING 542
SWIDTH 771 0
DWIDTH 13 0
BBX 13 15 0 0
BITMAP
0FC0
0000
F8F8
2020
2020
2020
2020
2020
3FE0
2020
2020
2020
2020
2020
F8F8
ENDCHAR
STARTCHAR uni021F
ENCODING 543
SWIDTH 633 0
DWIDTH 11 0
BBX 11 15 0 0
BITMAP
FC00
0000
E000
2000
2000
2000
2F00
3080
2080
2080
2080
2080
2080
2080
FBE0
ENDCHAR
STARTCHAR uni0226
ENCODING 550
SWIDTH 744 0
DWIDTH 13 0
BBX 13 15 0 0
BITMAP
0600
0000
0200
0600
0600
0500
0900
0880
1080
1080
3FC0
2040
2020
4020
E0F8
ENDCHAR
STARTCHAR uni0227
ENCODING 551
SWIDTH 543 0
DWIDTH 9 0
BBX 8 11 1 0
BITMAP
18
00
7C
86
82
02
3E
C2
82
C2
7F
ENDCHAR
STARTCHAR uni0228
ENCODING 552
SWIDTH 566 0
DWIDTH 10 0
BBX 10 16 0 -3
BITMAP
FFC0
2040
2000
2000
2000
2100
3F00
2100
2000
2000
2040
2040
FFC0
0C00
0600
0E00
ENDCHAR
STARTCHAR uni0229
ENCODING 553
SWIDTH 530 0
DWIDTH 9 0
BBX 7 12 1 -3
BITMAP
38
44
82
82
FE
80
80
42
3C
30
18
38
ENDCHAR
STARTCHAR uni022A
ENCODING 554
SWIDTH 777 0
DWIDTH 13 0
BBX 11 17 1 0
BITMAP
1F00
0000
1B00
0000
1F00
2080
4040
C060
8020
8020
8020
8020
8020
C060
4040
2080
1F00
ENDCHAR
STARTCHAR uni022B
ENCODING 555
SWIDTH 602 0
DWIDTH 10 0
BBX 9 13 1 0
BITMAP
3E00
0000
3600
0000
3E00
6300
C180
8080
8080
8080
C180
6300
3E00
ENDCHAR
STARTCHAR uni022C
ENCODING 556
SWIDTH 777 0
DWIDTH 13 0
BBX 11 17 1 0
BITMAP
1F00
0000
1F80
0000
1F00
2080
4040
C060
8020
8020
8020
8020
8020
C060
4040
2080
1F00
ENDCHAR
STARTCHAR uni022D
ENCODING 557
SWIDTH 602 0
DWIDTH 10 0
BBX 9 13 1 0
BITMAP
3E00
0000
7E00
0000
3E00
6300
C180
8080
8080
8080
C180
6300
3E00
ENDCHAR
STARTCHAR uni022E
ENCODING 558
SWIDTH 777 0
DWIDTH 13 0
BBX 11 15 1 0
BITMAP
0600
0000
1F00
2080
4040
C060
8020
8020
8020
8020
8020
C060
4040
2080
1F00
ENDCHAR
STARTCHAR uni022F
ENCODING 559
SWIDTH 602 0
DWIDTH 10 0
BBX 9 11 1 0
BITMAP
0C00
0000
3E00
6300
C180
8080
8080
8080
C180
6300
3E00
ENDCHAR
STARTCHAR uni0230
ENCODING 560
SWIDTH 777 0
DWIDTH 13 0
BBX 11 17 1 0
BITMAP
1F00
0000
0600
0000
1F00
2080
4040
C060
8020
8020
8020
8020
8020
C060
4040
2080
1F00
ENDCHAR
STARTCHAR uni0231
ENCODING 561
SWIDTH 602 0
DWIDTH 10 0
BBX 9 13 1 0
BITMAP
3E00
0000
0C00
0000
3E00
6300
C180
8080
8080
8080
C180
6300
3E00
ENDCHAR
STARTCHAR uni0232
ENCODING 562
SWIDTH 678 0
DWIDTH 12 0
BBX 11 15 0 0
BITMAP
1F00
0000
F8E0
3040
3080
1080
0900
0A00
0600
0400
0400
0400
0400
0400
1F00
ENDCHAR
STARTCHAR uni0233
ENCODING 563
SWIDTH 551 0
DWIDTH 9 0
BBX 9 14 0 -3
BITMAP
3E00
0000
F380
6100
2100
2300
1200
1200
1C00
0C00
0800
0800
1000
7000
ENDCHAR
STARTCHAR uni0250
ENCODING 592
SWIDTH 543 0
DWIDTH 9 0
BBX 8 9 1 0
BITMAP
FE
43
41
43
7C
40
41
61
3E
ENDCHAR
STARTCHAR uni0254
ENCODING 596
SWIDTH 509 0
DWIDTH 9 0
BBX 7 9 1 0
BITMAP
F8
84
86
02
02
02
02
0C
F8
ENDCHAR
STARTCHAR uni0258
ENCODING 600
SWIDTH 530 0
DWIDTH 9 0
BBX 7 9 1 0
BITMAP
38
44
82
82
FE
02
02
84
78
ENDCHAR
STARTCHAR uni0259
ENCODING 601
SWIDTH 530 0
DWIDTH 9 0
BBX 7 9 1 0
BITMAP
78
84
02
02
FE
82
82
44
38
ENDCHAR
STARTCHAR uni025F
ENCODING 607
SWIDTH 404 0
DWIDTH 7 0
BBX 7 13 0 -4
BITMAP
3E
08
08
08
08
08
08
08
7E
08
88
88
F0
ENDCHAR
STARTCHAR uni0265
ENCODING 613
SWIDTH 633 0
DWIDTH 11 0
BBX 11 13 0 -4
BITMAP
FBE0
2080
2080
2080
2080
2080
2080
2180
1E80
0080
0080
0080
00E0
ENDCHAR
STARTCHAR uni0275
ENCODING 629
SWIDTH 602 0
DWIDTH 10 0
BBX 9 9 1 0
BITMAP
3E00
6300
C180
8080
FF80
8080
C180
6300
3E00
ENDCHAR
STARTCHAR uni0279
ENCODING 633
SWIDTH 440 0
DWIDTH 7 0
BBX 6 9 1 0
BITMAP
7C
10
10
10
10
10
90
B0
DC
ENDCHAR
STARTCHAR uni0287
ENCODING 647
SWIDTH 392 0
DWIDTH 7 0
BBX 5 12 1 0
BITMAP
E0
10
10
10
10
10
10
10
F8
10
10
10
ENDCHAR
STARTCHAR uni0288
ENCODING 648
SWIDTH 392 0
DWIDTH 7 0
BBX 6 15 1 -3
BITMAP
40
40
40
F8
40
40
40
40
40
40
40
40
44
44
3C
ENDCHAR
STARTCHAR uni0289
ENCODING 649
SWIDTH 633 0
DWIDTH 11 0
BBX 11 9 0 0
BITMAP
E380
2080
2080
2080
FFE0
2080
2080
2180
1EE0
ENDCHAR
STARTCHAR uni028C
ENCODING 652
SWIDTH 545 0
DWIDTH 9 0
BBX 9 9 0 0
BITMAP
0800
1800
1400
3400
2400
2200
4200
4300
E780
ENDCHAR
STARTCHAR uni028D
ENCODING 653
SWIDTH 795 0
DWIDTH 14 0
BBX 14 9 0 0
BITMAP
1020
1860
1860
2CA0
2490
6510
4310
4318
E23C
ENDCHAR
STARTCHAR uni028E
ENCODING 654
SWIDTH 551 0
DWIDTH 9 0
BBX 9 12 0 0
BITMAP
0700
0400
0800
0800
1800
1C00
2400
2400
6200
4200
4300
E780
ENDCHAR
STARTCHAR uni029E
ENCODING 670
SWIDTH 599 0
DWIDTH 10 0
BBX 10 13 0 -4
BITMAP
E3C0
3100
1900
0D00
0700
0500
1900
3100
7100
0100
0100
0100
01C0
ENDCHAR
STARTCHAR uni02BB
ENCODING 699
SWIDTH 265 0
DWIDTH 4 0
BBX 2 5 1 8
BITMAP
40
80
80
C0
C0
ENDCHAR
STARTCHAR afii57929
ENCODING 700
SWIDTH 265 0
DWIDTH 4 0
BBX 2 5 1 8
BITMAP
C0
C0
40
40
80
ENDCHAR
STARTCHAR afii64937
ENCODING 701
SWIDTH 265 0
DWIDTH 4 0
BBX 2 5 1 8
BITMAP
C0
C0
80
80
40
ENDCHAR
STARTCHAR circumflex
ENCODING 710
SWIDTH 602 0
DWIDTH 10 0
BBX 6 1 2 12
BITMAP
FC
ENDCHAR
STARTCHAR caron
ENCODING 711
SWIDTH 602 0
DWIDTH 10 0
BBX 6 1 2 12
BITMAP
FC
ENDCHAR
STARTCHAR uni02C8
ENCODING 712
SWIDTH 241 0
DWIDTH 4 0
BBX 3 5 1 8
BITMAP
E0
E0
E0
40
40
ENDCHAR
STARTCHAR macron
ENCODING 713
SWIDTH 602 0
DWIDTH 10 0
BBX 5 1 3 12
BITMAP
F8
ENDCHAR
STARTCHAR uni02CA
ENCODING 714
SWIDTH 602 0
DWIDTH 10 0
BBX 4 1 3 12
BITMAP
F0
ENDCHAR
STARTCHAR uni02CB
ENCODING 715
SWIDTH 602 0
DWIDTH 10 0
BBX 4 1 3 12
BITMAP
F0
ENDCHAR
STARTCHAR uni02CD
ENCODING 717
SWIDTH 602 0
DWIDTH 10 0
BBX 5 1 3 -2
BITMAP
F8
ENDCHAR
STARTCHAR uni02CE
ENCODING 718
SWIDTH 602 0
DWIDTH 10 0
BBX 4 1 3 -2
BITMAP
F0
ENDCHAR
STARTCHAR uni02CF
ENCODING 719
SWIDTH 602 0
DWIDTH 10 0
BBX 4 1 3 -2
BITMAP
F0
ENDCHAR
STARTCHAR breve
ENCODING 728
SWIDTH 602 0
DWIDTH 10 0
BBX 6 1 2 12
BITMAP
FC
ENDCHAR
STARTCHAR dotaccent
ENCODING 729
SWIDTH 602 0
DWIDTH 10 0
BBX 2 1 4 12
BITMAP
C0
ENDCHAR
STARTCHAR ring
ENCODING 730
SWIDTH 602 0
DWIDTH 10 0
BBX 3 2 4 11
BITMAP
E0
E0
ENDCHAR
STARTCHAR ogonek
ENCODING 731
SWIDTH 602 0
DWIDTH 10 0
BBX 3 1 4 -3
BITMAP
E0
ENDCHAR
STARTCHAR tilde
ENCODING 732
SWIDTH 602 0
DWIDTH 10 0
BBX 6 1 2 12
BITMAP
FC
ENDCHAR
STARTCHAR hungarumlaut
ENCODING 733
SWIDTH 602 0
DWIDTH 10 0
BBX 5 1 3 12
BITMAP
F8
ENDCHAR
STARTCHAR uni02EE
ENCODING 750
SWIDTH 458 0
DWIDTH 8 0
BBX 5 5 1 8
BITMAP
88
88
88
88
88
ENDCHAR
STARTCHAR uni037E
ENCODING 894
SWIDTH 265 0
DWIDTH 4 0
BBX 1 12 2 -3
BITMAP
80
00
00
00
00
00
00
80
80
80
80
80
ENDCHAR
STARTCHAR tonos
ENCODING 900
SWIDTH 602 0
DWIDTH 10 0
BBX 4 1 3 12
BITMAP
F0
ENDCHAR
STARTCHAR dieresistonos
ENCODING 901
SWIDTH 602 0
DWIDTH 10 0
BBX 5 3 3 12
BITMAP
78
00
D8
ENDCHAR
STARTCHAR anoteleia
ENCODING 903
SWIDTH 608 0
DWIDTH 10 0
BBX 2 1 4 5
BITMAP
C0
ENDCHAR
STARTCHAR mu
ENCODING 956
SWIDTH 626 0
DWIDTH 11 0
BBX 11 12 0 -3
BITMAP
E380
2080
2080
2080
2080
2080
2080
2180
3EE0
2000
2000
2000
ENDCHAR
STARTCHAR uni1E00
ENCODING 7680
SWIDTH 744 0
DWIDTH 13 0
BBX 13 16 0 -3
BITMAP
0200
0600
0600
0500
0900
0880
1080
1080
3FC0
2040
2020
4020
E0F8
0000
0700
0700
ENDCHAR
STARTCHAR uni1E01
ENCODING 7681
SWIDTH 543 0
DWIDTH 9 0
BBX 8 12 1 -3
BITMAP
7C
86
82
02
3E
C2
82
C2
7F
00
38
38
ENDCHAR
STARTCHAR uni1E02
ENCODING 7682
SWIDTH 609 0
DWIDTH 10 0
BBX 9 15 0 0
BITMAP
0C00
0000
FF00
2180
2080
2080
2080
2300
3F00
2300
2080
2080
2080
2180
FF00
ENDCHAR
STARTCHAR uni1E03
ENCODING 7683
SWIDTH 611 0
DWIDTH 10 0
BBX 10 15 0 0
BITMAP
3000
0000
E000
2000
2000
2000
2F00
3080
2040
2040
2040
2040
2040
3080
2F00
ENDCHAR
STARTCHAR uni1E04
ENCODING 7684
SWIDTH 609 0
DWIDTH 10 0
BBX 9 15 0 -2
BITMAP
FF00
2180
2080
2080
2080
2300
3F00
2300
2080
2080
2080
2180
FF00
0000
0C00
ENDCHAR
STARTCHAR uni1E05
ENCODING 7685
SWIDTH 611 0
DWIDTH 10 0
BBX 10 15 0 -2
BITMAP
E000
2000
2000
2000
2F00
3080
2040
2040
2040
2040
2040
3080
2F00
0000
0C00
ENDCHAR
STARTCHAR uni1E06
ENCODING 7686
SWIDTH 609 0
DWIDTH 10 0
BBX 9 15 0 -2
BITMAP
FF00
2180
2080
2080
2080
2300
3F00
2300
2080
2080
2080
2180
FF00
0000
3E00
ENDCHAR
STARTCHAR uni1E07
ENCODING 7687
SWIDTH 611 0
DWIDTH 10 0
BBX 10 15 0 -2
BITMAP
E000
2000
2000
2000
2F00
3080
2040
2040
2040
2040
2040
3080
2F00
0000
1F00
ENDCHAR
STARTCHAR uni1E08
ENCODING 7688
SWIDTH 695 0
DWIDTH 12 0
BBX 10 18 1 -3
BITMAP
1E00
0000
1FC0
30C0
4040
4000
8000
8000
8000
8000
8000
4000
4000
3040
1F80
0400
0600
0E00
ENDCHAR
STARTCHAR uni1E09
ENCODING 7689
SWIDTH 509 0
DWIDTH 9 0
BBX 7 14 1 -3
BITMAP
3C
00
3E
42
C2
80
80
80
80
60
3E
10
18
38
ENDCHAR
STARTCHAR uni1E0A
ENCODING 7690
SWIDTH 768 0
DWIDTH 13 0
BBX 12 15 0 0
BITMAP
0600
0000
FF80
20C0
2020
2010
2010
2010
2010
2010
2010
2010
2020
2040
FF80
ENDCHAR
STARTCHAR uni1E0B
ENCODING 7691
SWIDTH 642 0
DWIDTH 11 0
BBX 10 15 1 0
BITMAP
0600
0000
0700
0100
0100
0100
3D00
4300
8100
8100
8100
8100
8100
4300
3DC0
ENDCHAR
STARTCHAR uni1E0C
ENCODING 7692
SWIDTH 768 0
DWIDTH 13 0
BBX 12 15 0 -2
BITMAP
FF80
20C0
2020
2010
2010
2010
2010
2010
2010
2010
2020
2040
FF80
0000
0600
ENDCHAR
STARTCHAR uni1E0D
ENCODING 7693
SWIDTH 642 0
DWIDTH 11 0
BBX 10 15 1 -2
BITMAP
0700
0100
0100
0100
3D00
4300
8100
8100
8100
8100
8100
4300
3DC0
0000
0C00
ENDCHAR
STARTCHAR uni1E0E
ENCODING 7694
SWIDTH 768 0
DWIDTH 13 0
BBX 12 15 0 -2
BITMAP
FF80
20C0
2020
2010
2010
2010
2010
2010
2010
2010
2020
2040
FF80
0000
1F00
ENDCHAR
STARTCHAR uni1E0F
ENCODING 7695
SWIDTH 642 0
DWIDTH 11 0
BBX 10 15 1 -2
BITMAP
0700
0100
0100
0100
3D00
4300
8100
8100
8100
8100
8100
4300
3DC0
0000
1F00
ENDCHAR
STARTCHAR uni1E10
ENCODING 7696
SWIDTH 768 0
DWIDTH 13 0
BBX 12 16 0 -3
BITMAP
FF80
20C0
2020
2010
2010
2010
2010
2010
2010
2010
2020
2040
FF80
0C00
0600
0E00
ENDCHAR
STARTCHAR uni1E11
ENCODING 7697
SWIDTH 642 0
DWIDTH 11 0
BBX 10 16 1 -3
BITMAP
0700
0100
0100
0100
3D00
4300
8100
8100
8100
8100
8100
4300
3DC0
0C00
0600
0E00
ENDCHAR
STARTCHAR uni1E12
ENCODING 7698
SWIDTH 768 0
DWIDTH 13 0
BBX 12 15 0 -2
BITMAP
FF80
20C0
2020
2010
2010
2010
2010
2010
2010
2010
2020
2040
FF80
0000
1F80
ENDCHAR
STARTCHAR uni1E13
ENCODING 7699
SWIDTH 642 0
DWIDTH 11 0
BBX 10 15 1 -2
BITMAP
0700
0100
0100
0100
3D00
4300
8100
8100
8100
8100
8100
4300
3DC0
0000
3F00
ENDCHAR
STARTCHAR uni1E14
ENCODING 7700
SWIDTH 566 0
DWIDTH 10 0
BBX 10 17 0 0
BITMAP
1E00
0000
3E00
0000
FFC0
2040
2000
2000
2000
2100
3F00
2100
2000
2000
2040
2040
FFC0
ENDCHAR
STARTCHAR uni1E15
ENCODING 7701
SWIDTH 530 0
DWIDTH 9 0
BBX 7 13 1 0
BITMAP
3C
00
7C
00
38
44
82
82
FE
80
80
42
3C
ENDCHAR
STARTCHAR uni1E16
ENCODING 7702
SWIDTH 566 0
DWIDTH 10 0
BBX 10 17 0 0
BITMAP
1E00
0000
3E00
0000
FFC0
2040
2000
2000
2000
2100
3F00
2100
2000
2000
2040
2040
FFC0
ENDCHAR
STARTCHAR uni1E17
ENCODING 7703
SWIDTH 530 0
DWIDTH 9 0
BBX 7 13 1 0
BITMAP
3C
00
7C
00
38
44
82
82
FE
80
80
42
3C
ENDCHAR
STARTCHAR uni1E18
ENCODING 7704
SWIDTH 566 0
DWIDTH 10 0
BBX 10 15 0 -2
BITMAP
FFC0
2040
2000
2000
2000
2100
3F00
2100
2000
2000
2040
2040
FFC0
0000
3F00
ENDCHAR
STARTCHAR uni1E19
ENCODING 7705
SWIDTH 530 0
DWIDTH 9 0
BBX 7 11 1 -2
BITMAP
38
44
82
82
FE
80
80
42
3C
00
7E
ENDCHAR
STARTCHAR uni1E1A
ENCODING 7706
SWIDTH 566 0
DWIDTH 10 0
BBX 10 15 0 -2
BITMAP
FFC0
2040
2000
2000
2000
2100
3F00
2100
2000
2000
2040
2040
FFC0
0000
3F00
ENDCHAR
STARTCHAR uni1E1B
ENCODING 7707
SWIDTH 530 0
DWIDTH 9 0
BBX 7 11 1 -2
BITMAP
38
44
82
82
FE
80
80
42
3C
00
7E
ENDCHAR
STARTCHAR uni1E1C
ENCODING 7708
SWIDTH 566 0
DWIDTH 10 0
BBX 10 18 0 -3
BITMAP
3F00
0000
FFC0
2040
2000
2000
2000
2100
3F00
2100
2000
2000
2040
2040
FFC0
0C00
0600
0E00
ENDCHAR
STARTCHAR uni1E1D
ENCODING 7709
SWIDTH 530 0
DWIDTH 9 0
BBX 7 14 1 -3
BITMAP
7E
00
38
44
82
82
FE
80
80
42
3C
30
18
38
ENDCHAR
STARTCHAR uni1E1E
ENCODING 7710
SWIDTH 548 0
DWIDTH 9 0
BBX 9 15 0 0
BITMAP
1800
0000
FF80
2080
2000
2000
2000
2100
3F00
2100
2000
2000
2000
2000
F800
ENDCHAR
STARTCHAR uni1E1F
ENCODING 7711
SWIDTH 404 0
DWIDTH 7 0
BBX 7 15 0 0
BITMAP
18
00
1E
22
22
20
FC
20
20
20
20
20
20
20
F8
ENDCHAR
STARTCHAR uni1E20
ENCODING 7712
SWIDTH 732 0
DWIDTH 12 0
BBX 12 15 1 0
BITMAP
1F00
0000
1F80
30C0
4040
4000
8000
8000
8000
81F0
8040
4040
4040
3040
1FC0
ENDCHAR
STARTCHAR uni1E21
ENCODING 7713
SWIDTH 571 0
DWIDTH 10 0
BBX 10 14 0 -3
BITMAP
1F00
0000
3FC0
6300
4100
4100
4100
2200
7C00
4000
7F80
8040
C0C0
7F00
ENDCHAR
STARTCHAR uni1E22
ENCODING 7714
SWIDTH 771 0
DWIDTH 13 0
BBX 13 15 0 0
BITMAP
0300
0000
F8F8
2020
2020
2020
2020
2020
3FE0
2020
2020
2020
2020
2020
F8F8
ENDCHAR
STARTCHAR uni1E23
ENCODING 7715
SWIDTH 633 0
DWIDTH 11 0
BBX 11 15 0 0
BITMAP
3000
0000
E000
2000
2000
2000
2F00
3080
2080
2080
2080
2080
2080
2080
FBE0
ENDCHAR
STARTCHAR uni1E24
ENCODING 7716
SWIDTH 771 0
DWIDTH 13 0
BBX 13 15 0 -2
BITMAP
F8F8
2020
2020
2020
2020
2020
3FE0
2020
2020
2020
2020
2020
F8F8
0000
0300
ENDCHAR
STARTCHAR uni1E25
ENCODING 7717
SWIDTH 633 0
DWIDTH 11 0
BBX 11 15 0 -2
BITMAP
E000
2000
2000
2000
2F00
3080
2080
2080
2080
2080
2080
2080
FBE0
0000
0600
ENDCHAR
STARTCHAR uni1E26
ENCODING 7718
SWIDTH 771 0
DWIDTH 13 0
BBX 13 15 0 0
BITMAP
0D80
0000
F8F8
2020
2020
2020
2020
2020
3FE0
2020
2020
2020
2020
2020
F8F8
ENDCHAR
STARTCHAR uni1E27
ENCODING 7719
SWIDTH 633 0
DWIDTH 11 0
BBX 11 15 0 0
BITMAP
6C00
0000
E000
2000
2000
2000
2F00
3080
2080
2080
2080
2080
2080
2080
FBE0
ENDCHAR
STARTCHAR uni1E28
ENCODING 7720
SWIDTH 771 0
DWIDTH 13 0
BBX 13 16 0 -3
BITMAP
F8F8
2020
2020
2020
2020
2020
3FE0
2020
2020
2020
2020
2020
F8F8
0600
0300
0700
ENDCHAR
STARTCHAR uni1E29
ENCODING 7721
SWIDTH 633 0
DWIDTH 11 0
BBX 11 16 0 -3
BITMAP
E000
2000
2000
2000
2F00
3080
2080
2080
2080
2080
2080
2080
FBE0
0C00
0600
0E00
ENDCHAR
STARTCHAR uni1E2A
ENCODING 7722
SWIDTH 771 0
DWIDTH 13 0
BBX 13 15 0 -2
BITMAP
F8F8
2020
2020
2020
2020
2020
3FE0
2020
2020
2020
2020
2020
F8F8
0000
0FC0
ENDCHAR
STARTCHAR uni1E2B
ENCODING 7723
SWIDTH 633 0
DWIDTH 11 0
BBX 11 15 0 -2
BITMAP
E000
2000
2000
2000
2F00
3080
2080
2080
2080
2080
2080
2080
FBE0
0000
1F80
ENDCHAR
STARTCHAR uni1E2C
ENCODING 7724
SWIDTH 325 0
DWIDTH 6 0
BBX 6 15 0 -2
BITMAP
F8
20
20
20
20
20
20
20
20
20
20
20
F8
00
FC
ENDCHAR
STARTCHAR uni1E2D
ENCODING 7725
SWIDTH 307 0
DWIDTH 5 0
BBX 6 15 0 -2
BITMAP
20
00
00
00
E0
20
20
20
20
20
20
20
F8
00
FC
ENDCHAR
STARTCHAR uni1E2E
ENCODING 7726
SWIDTH 325 0
DWIDTH 6 0
BBX 5 17 0 0
BITMAP
78
00
D8
00
F8
20
20
20
20
20
20
20
20
20
20
20
F8
ENDCHAR
STARTCHAR uni1E2F
ENCODING 7727
SWIDTH 307 0
DWIDTH 5 0
BBX 5 13 0 0
BITMAP
F0
00
D8
00
E0
20
20
20
20
20
20
20
F8
ENDCHAR
STARTCHAR uni1E30
ENCODING 7728
SWIDTH 708 0
DWIDTH 12 0
BBX 12 15 0 0
BITMAP
0F00
0000
F9E0
20C0
2100
2200
2400
2800
3800
2C00
2600
2300
2180
20C0
F3F0
ENDCHAR
STARTCHAR uni1E31
ENCODING 7729
SWIDTH 599 0
DWIDTH 10 0
BBX 10 15 0 0
BITMAP
7800
0000
E000
2000
2000
2000
2380
2300
2600
2800
3800
2C00
2600
2300
F1C0
ENDCHAR
STARTCHAR uni1E32
ENCODING 7730
SWIDTH 708 0
DWIDTH 12 0
BBX 12 15 0 -2
BITMAP
F9E0
20C0
2100
2200
2400
2800
3800
2C00
2600
2300
2180
20C0
F3F0
0000
0600
ENDCHAR
STARTCHAR uni1E33
ENCODING 7731
SWIDTH 599 0
DWIDTH 10 0
BBX 10 15 0 -2
BITMAP
E000
2000
2000
2000
2380
2300
2600
2800
3800
2C00
2600
2300
F1C0
0000
0C00
ENDCHAR
STARTCHAR uni1E34
ENCODING 7732
SWIDTH 708 0
DWIDTH 12 0
BBX 12 15 0 -2
BITMAP
F9E0
20C0
2100
2200
2400
2800
3800
2C00
2600
2300
2180
20C0
F3F0
0000
0F80
ENDCHAR
STARTCHAR uni1E35
ENCODING 7733
SWIDTH 599 0
DWIDTH 10 0
BBX 10 15 0 -2
BITMAP
E000
2000
2000
2000
2380
2300
2600
2800
3800
2C00
2600
2300
F1C0
0000
3E00
ENDCHAR
STARTCHAR uni1E36
ENCODING 7734
SWIDTH 557 0
DWIDTH 9 0
BBX 9 15 0 -2
BITMAP
F800
2000
2000
2000
2000
2000
2000
2000
2000
2000
2080
2080
FF80
0000
0C00
ENDCHAR
STARTCHAR uni1E37
ENCODING 7735
SWIDTH 313 0
DWIDTH 5 0
BBX 5 15 0 -2
BITMAP
E0
20
20
20
20
20
20
20
20
20
20
20
F8
00
30
ENDCHAR
STARTCHAR uni1E38
ENCODING 7736
SWIDTH 557 0
DWIDTH 9 0
BBX 9 17 0 -2
BITMAP
7C00
0000
F800
2000
2000
2000
2000
2000
2000
2000
2000
2000
2080
2080
FF80
0000
0C00
ENDCHAR
STARTCHAR uni1E39
ENCODING 7737
SWIDTH 313 0
DWIDTH 5 0
BBX 5 17 0 -2
BITMAP
F8
00
E0
20
20
20
20
20
20
20
20
20
20
20
F8
00
30
ENDCHAR
STARTCHAR uni1E3A
ENCODING 7738
SWIDTH 557 0
DWIDTH 9 0
BBX 9 15 0 -2
BITMAP
F800
2000
2000
2000
2000
2000
2000
2000
2000
2000
2080
2080
FF80
0000
3E00
ENDCHAR
STARTCHAR uni1E3B
ENCODING 7739
SWIDTH 313 0
DWIDTH 5 0
BBX 5 15 0 -2
BITMAP
E0
20
20
20
20
20
20
20
20
20
20
20
F8
00
F8
ENDCHAR
STARTCHAR uni1E3C
ENCODING 7740
SWIDTH 557 0
DWIDTH 9 0
BBX 9 15 0 -2
BITMAP
F800
2000
2000
2000
2000
2000
2000
2000
2000
2000
2080
2080
FF80
0000
3F00
ENDCHAR
STARTCHAR uni1E3D
ENCODING 7741
SWIDTH 313 0
DWIDTH 5 0
BBX 6 15 0 -2
BITMAP
E0
20
20
20
20
20
20
20
20
20
20
20
F8
00
FC
ENDCHAR
STARTCHAR uni1E3E
ENCODING 7742
SWIDTH 860 0
DWIDTH 15 0
BBX 15 15 0 0
BITMAP
03C0
0000
F01E
3018
2818
2828
2828
2448
2448
2248
2288
2188
2108
2108
F83E
ENDCHAR
STARTCHAR uni1E3F
ENCODING 7743
SWIDTH 946 0
DWIDTH 16 0
BBX 17 11 0 0
BITMAP
03C000
000000
EF3C00
30C200
208200
208200
208200
208200
208200
208200
FBEF80
ENDCHAR
STARTCHAR uni1E40
ENCODING 7744
SWIDTH 860 0
DWIDTH 15 0
BBX 15 15 0 0
BITMAP
0180
0000
F01E
3018
2818
2828
2828
2448
2448
2248
2288
2188
2108
2108
F83E
ENDCHAR
STARTCHAR uni1E41
ENCODING 7745
SWIDTH 946 0
DWIDTH 16 0
BBX 17 11 0 0
BITMAP
018000
000000
EF3C00
30C200
208200
208200
208200
208200
208200
208200
FBEF80
ENDCHAR
STARTCHAR uni1E42
ENCODING 7746
SWIDTH 860 0
DWIDTH 15 0
BBX 15 15 0 -2
BITMAP
F01E
3018
2818
2828
2828
2448
2448
2248
2288
2188
2108
2108
F83E
0000
0180
ENDCHAR
STARTCHAR uni1E43
ENCODING 7747
SWIDTH 946 0
DWIDTH 16 0
BBX 17 11 0 -2
BITMAP
EF3C00
30C200
208200
208200
208200
208200
208200
208200
FBEF80
000000
00C000
ENDCHAR
STARTCHAR uni1E44
ENCODING 7748
SWIDTH 751 0
DWIDTH 13 0
BBX 13 15 0 0
BITMAP
0600
0000
E0F8
3020
3020
2820
2420
2620
2220
2120
21A0
20A0
2060
2020
F820
ENDCHAR
STARTCHAR uni1E45
ENCODING 7749
SWIDTH 633 0
DWIDTH 11 0
BBX 11 11 0 0
BITMAP
0C00
0000
EF00
3080
2080
2080
2080
2080
2080
2080
FBE0
ENDCHAR
STARTCHAR uni1E46
ENCODING 7750
SWIDTH 751 0
DWIDTH 13 0
BBX 13 15 0 -2
BITMAP
E0F8
3020
3020
2820
2420
2620
2220
2120
21A0
20A0
2060
2020
F820
0000
0600
ENDCHAR
STARTCHAR uni1E47
ENCODING 7751
SWIDTH 633 0
DWIDTH 11 0
BBX 11 11 0 -2
BITMAP
EF00
3080
2080
2080
2080
2080
2080
2080
FBE0
0000
0600
ENDCHAR
STARTCHAR uni1E48
ENCODING 7752
SWIDTH 751 0
DWIDTH 13 0
BBX 13 15 0 -2
BITMAP
E0F8
3020
3020
2820
2420
2620
2220
2120
21A0
20A0
2060
2020
F820
0000
1F00
ENDCHAR
STARTCHAR uni1E49
ENCODING 7753
SWIDTH 633 0
DWIDTH 11 0
BBX 11 11 0 -2
BITMAP
EF00
3080
2080
2080
2080
2080
2080
2080
FBE0
0000
1F00
ENDCHAR
STARTCHAR uni1E4A
ENCODING 7754
SWIDTH 751 0
DWIDTH 13 0
BBX 13 15 0 -2
BITMAP
E0F8
3020
3020
2820
2420
2620
2220
2120
21A0
20A0
2060
2020
F820
0000
1F80
ENDCHAR
STARTCHAR uni1E4B
ENCODING 7755
SWIDTH 633 0
DWIDTH 11 0
BBX 11 11 0 -2
BITMAP
EF00
3080
2080
2080
2080
2080
2080
2080
FBE0
0000
1F80
ENDCHAR
STARTCHAR uni1E4C
ENCODING 7756
SWIDTH 777 0
DWIDTH 13 0
BBX 11 17 1 0
BITMAP
0F00
0000
1F80
0000
1F00
2080
4040
C060
8020
8020
8020
8020
8020
C060
4040
2080
1F00
ENDCHAR
STARTCHAR uni1E4D
ENCODING 7757
SWIDTH 602 0
DWIDTH 10 0
BBX 9 13 1 0
BITMAP
3C00
0000
7E00
0000
3E00
6300
C180
8080
8080
8080
C180
6300
3E00
ENDCHAR
STARTCHAR uni1E4E
ENCODING 7758
SWIDTH 777 0
DWIDTH 13 0
BBX 11 17 1 0
BITMAP
1B00
0000
1F80
0000
1F00
2080
4040
C060
8020
8020
8020
8020
8020
C060
4040
2080
1F00
ENDCHAR
STARTCHAR uni1E4F
ENCODING 7759
SWIDTH 602 0
DWIDTH 10 0
BBX 9 13 1 0
BITMAP
3600
0000
7E00
0000
3E00
6300
C180
8080
8080
8080
C180
6300
3E00
ENDCHAR
STARTCHAR uni1E50
ENCODING 7760
SWIDTH 777 0
DWIDTH 13 0
BBX 11 17 1 0
BITMAP
0F00
0000
1F00
0000
1F00
2080
4040
C060
8020
8020
8020
8020
8020
C060
4040
2080
1F00
ENDCHAR
STARTCHAR uni1E51
ENCODING 7761
SWIDTH 602 0
DWIDTH 10 0
BBX 9 13 1 0
BITMAP
1E00
0000
3E00
0000
3E00
6300
C180
8080
8080
8080
C180
6300
3E00
ENDCHAR
STARTCHAR uni1E52
ENCODING 7762
SWIDTH 777 0
DWIDTH 13 0
BBX 11 17 1 0
BITMAP
0F00
0000
1F00
0000
1F00
2080
4040
C060
8020
8020
8020
8020
8020
C060
4040
2080
1F00
ENDCHAR
STARTCHAR uni1E53
ENCODING 7763
SWIDTH 602 0
DWIDTH 10 0
BBX 9 13 1 0
BITMAP
1E00
0000
3E00
0000
3E00
6300
C180
8080
8080
8080
C180
6300
3E00
ENDCHAR
STARTCHAR uni1E54
ENCODING 7764
SWIDTH 573 0
DWIDTH 10 0
BBX 9 15 0 0
BITMAP
3C00
0000
FE00
2100
2080
2080
2080
2180
2300
3E00
2000
2000
2000
2000
F800
ENDCHAR
STARTCHAR uni1E55
ENCODING 7765
SWIDTH 642 0
DWIDTH 11 0
BBX 10 14 0 -3
BITMAP
1E00
0000
EF00
3080
2040
2040
2040
2040
2040
3080
2F00
2000
2000
F800
ENDCHAR
STARTCHAR uni1E56
ENCODING 7766
SWIDTH 573 0
DWIDTH 10 0
BBX 9 15 0 0
BITMAP
1800
0000
FE00
2100
2080
2080
2080
2180
2300
3E00
2000
2000
2000
2000
F800
ENDCHAR
STARTCHAR uni1E57
ENCODING 7767
SWIDTH 642 0
DWIDTH 11 0
BBX 10 14 0 -3
BITMAP
0C00
0000
EF00
3080
2040
2040
2040
2040
2040
3080
2F00
2000
2000
F800
ENDCHAR
STARTCHAR uni1E58
ENCODING 7768
SWIDTH 679 0
DWIDTH 11 0
BBX 11 15 0 0
BITMAP
0C00
0000
FE00
2180
2080
2080
2080
2100
3E00
2200
2200
2100
2100
2080
F0E0
ENDCHAR
STARTCHAR uni1E59
ENCODING 7769
SWIDTH 440 0
DWIDTH 7 0
BBX 6 11 1 0
BITMAP
30
00
EC
34
24
20
20
20
20
20
F8
ENDCHAR
STARTCHAR uni1E5A
ENCODING 7770
SWIDTH 679 0
DWIDTH 11 0
BBX 11 15 0 -2
BITMAP
FE00
2180
2080
2080
2080
2100
3E00
2200
2200
2100
2100
2080
F0E0
0000
0C00
ENDCHAR
STARTCHAR uni1E5B
ENCODING 7771
SWIDTH 440 0
DWIDTH 7 0
BBX 6 11 1 -2
BITMAP
EC
34
24
20
20
20
20
20
F8
00
30
ENDCHAR
STARTCHAR uni1E5C
ENCODING 7772
SWIDTH 679 0
DWIDTH 11 0
BBX 11 17 0 -2
BITMAP
3E00
0000
FE00
2180
2080
2080
2080
2100
3E00
2200
2200
2100
2100
2080
F0E0
0000
0C00
ENDCHAR
STARTCHAR uni1E5D
ENCODING 7773
SWIDTH 440 0
DWIDTH 7 0
BBX 6 13 1 -2
BITMAP
7C
00
EC
34
24
20
20
20
20
20
F8
00
30
ENDCHAR
STARTCHAR uni1E5E
ENCODING 7774
SWIDTH 679 0
DWIDTH 11 0
BBX 11 15 0 -2
BITMAP
FE00
2180
2080
2080
2080
2100
3E00
2200
2200
2100
2100
2080
F0E0
0000
1F00
ENDCHAR
STARTCHAR uni1E5F
ENCODING 7775
SWIDTH 440 0
DWIDTH 7 0
BBX 6 11 1 -2
BITMAP
EC
34
24
20
20
20
20
20
F8
00
F8
ENDCHAR
STARTCHAR uni1E60
ENCODING 7776
SWIDTH 542 0
DWIDTH 9 0
BBX 7 15 1 0
BITMAP
18
00
3E
42
82
80
C0
60
18
04
02
02
82
84
F8
ENDCHAR
STARTCHAR uni1E61
ENCODING 7777
SWIDTH 504 0
DWIDTH 9 0
BBX 6 11 1 0
BITMAP
30
00
7C
84
84
C0
30
0C
84
84
F8
ENDCHAR
STARTCHAR uni1E62
ENCODING 7778
SWIDTH 542 0
DWIDTH 9 0
BBX 7 15 1 -2
BITMAP
3E
42
82
80
C0
60
18
04
02
02
82
84
F8
00
30
ENDCHAR
STARTCHAR uni1E63
ENCODING 7779
SWIDTH 504 0
DWIDTH 9 0
BBX 6 11 1 -2
BITMAP
7C
84
84
C0
30
0C
84
84
F8
00
30
ENDCHAR
STARTCHAR uni1E64
ENCODING 7780
SWIDTH 542 0
DWIDTH 9 0
BBX 7 17 1 0
BITMAP
18
00
3C
00
3E
42
82
80
C0
60
18
04
02
02
82
84
F8
ENDCHAR
STARTCHAR uni1E65
ENCODING 7781
SWIDTH 504 0
DWIDTH 9 0
BBX 6 13 1 0
BITMAP
30
00
78
00
7C
84
84
C0
30
0C
84
84
F8
ENDCHAR
STARTCHAR uni1E66
ENCODING 7782
SWIDTH 542 0
DWIDTH 9 0
BBX 7 17 1 0
BITMAP
18
00
FC
00
3E
42
82
80
C0
60
18
04
02
02
82
84
F8
ENDCHAR
STARTCHAR uni1E67
ENCODING 7783
SWIDTH 504 0
DWIDTH 9 0
BBX 6 13 1 0
BITMAP
30
00
FC
00
7C
84
84
C0
30
0C
84
84
F8
ENDCHAR
STARTCHAR uni1E68
ENCODING 7784
SWIDTH 542 0
DWIDTH 9 0
BBX 7 17 1 -2
BITMAP
18
00
3E
42
82
80
C0
60
18
04
02
02
82
84
F8
00
30
ENDCHAR
STARTCHAR uni1E69
ENCODING 7785
SWIDTH 504 0
DWIDTH 9 0
BBX 6 13 1 -2
BITMAP
30
00
7C
84
84
C0
30
0C
84
84
F8
00
30
ENDCHAR
STARTCHAR uni1E6A
ENCODING 7786
SWIDTH 663 0
DWIDTH 11 0
BBX 11 15 0 0
BITMAP
0600
0000
FFE0
0400
0400
0400
0400
0400
0400
0400
0400
0400
0400
0400
1F00
ENDCHAR
STARTCHAR uni1E6B
ENCODING 7787
SWIDTH 392 0
DWIDTH 7 0
BBX 5 14 1 0
BITMAP
60
00
40
40
40
F8
40
40
40
40
40
40
40
38
ENDCHAR
STARTCHAR uni1E6C
ENCODING 7788
SWIDTH 663 0
DWIDTH 11 0
BBX 11 15 0 -2
BITMAP
FFE0
0400
0400
0400
0400
0400
0400
0400
0400
0400
0400
0400
1F00
0000
0600
ENDCHAR
STARTCHAR uni1E6D
ENCODING 7789
SWIDTH 392 0
DWIDTH 7 0
BBX 5 14 1 -2
BITMAP
40
40
40
F8
40
40
40
40
40
40
40
38
00
30
ENDCHAR
STARTCHAR uni1E6E
ENCODING 7790
SWIDTH 663 0
DWIDTH 11 0
BBX 11 15 0 -2
BITMAP
FFE0
0400
0400
0400
0400
0400
0400
0400
0400
0400
0400
0400
1F00
0000
1F00
ENDCHAR
STARTCHAR uni1E6F
ENCODING 7791
SWIDTH 392 0
DWIDTH 7 0
BBX 5 14 1 -2
BITMAP
40
40
40
F8
40
40
40
40
40
40
40
38
00
F8
ENDCHAR
STARTCHAR uni1E70
ENCODING 7792
SWIDTH 663 0
DWIDTH 11 0
BBX 11 15 0 -2
BITMAP
FFE0
0400
0400
0400
0400
0400
0400
0400
0400
0400
0400
0400
1F00
0000
1F80
ENDCHAR
STARTCHAR uni1E71
ENCODING 7793
SWIDTH 392 0
DWIDTH 7 0
BBX 6 14 1 -2
BITMAP
40
40
40
F8
40
40
40
40
40
40
40
38
00
FC
ENDCHAR
STARTCHAR uni1E72
ENCODING 7794
SWIDTH 719 0
DWIDTH 12 0
BBX 13 15 0 -2
BITMAP
F8F8
2020
2020
2020
2020
2020
2020
2020
2020
2020
2020
1040
0F80
0000
0D80
ENDCHAR
STARTCHAR uni1E73
ENCODING 7795
SWIDTH 633 0
DWIDTH 11 0
BBX 11 11 0 -2
BITMAP
E380
2080
2080
2080
2080
2080
2080
2180
1EE0
0000
0D80
ENDCHAR
STARTCHAR uni1E74
ENCODING 7796
SWIDTH 719 0
DWIDTH 12 0
BBX 13 15 0 -2
BITMAP
F8F8
2020
2020
2020
2020
2020
2020
2020
2020
2020
2020
1040
0F80
0000
0FC0
ENDCHAR
STARTCHAR uni1E75
ENCODING 7797
SWIDTH 633 0
DWIDTH 11 0
BBX 11 11 0 -2
BITMAP
E380
2080
2080
2080
2080
2080
2080
2180
1EE0
0000
1F80
ENDCHAR
STARTCHAR uni1E76
ENCODING 7798
SWIDTH 719 0
DWIDTH 12 0
BBX 13 15 0 -2
BITMAP
F8F8
2020
2020
2020
2020
2020
2020
2020
2020
2020
2020
1040
0F80
0000
0FC0
ENDCHAR
STARTCHAR uni1E77
ENCODING 7799
SWIDTH 633 0
DWIDTH 11 0
BBX 11 11 0 -2
BITMAP
E380
2080
2080
2080
2080
2080
2080
2180
1EE0
0000
1F80
ENDCHAR
STARTCHAR uni1E78
ENCODING 7800
SWIDTH 719 0
DWIDTH 12 0
BBX 13 17 0 0
BITMAP
0780
0000
0FC0
0000
F8F8
2020
2020
2020
2020
2020
2020
2020
2020
2020
2020
1040
0F80
ENDCHAR
STARTCHAR uni1E79
ENCODING 7801
SWIDTH 633 0
DWIDTH 11 0
BBX 11 13 0 0
BITMAP
1E00
0000
3F00
0000
E380
2080
2080
2080
2080
2080
2080
2180
1EE0
ENDCHAR
STARTCHAR uni1E7A
ENCODING 7802
SWIDTH 719 0
DWIDTH 12 0
BBX 13 17 0 0
BITMAP
0D80
0000
0F80
0000
F8F8
2020
2020
2020
2020
2020
2020
2020
2020
2020
2020
1040
0F80
ENDCHAR
STARTCHAR uni1E7B
ENCODING 7803
SWIDTH 633 0
DWIDTH 11 0
BBX 11 13 0 0
BITMAP
1B00
0000
1F00
0000
E380
2080
2080
2080
2080
2080
2080
2180
1EE0
ENDCHAR
STARTCHAR uni1E7C
ENCODING 7804
SWIDTH 699 0
DWIDTH 12 0
BBX 12 15 0 0
BITMAP
1F80
0000
F070
6020
2020
2040
1040
10C0
0880
0880
0D00
0500
0500
0200
0200
ENDCHAR
STARTCHAR uni1E7D
ENCODING 7805
SWIDTH 545 0
DWIDTH 9 0
BBX 9 11 0 0
BITMAP
7E00
0000
F380
6100
2100
2200
1200
1600
1400
0C00
0800
ENDCHAR
STARTCHAR uni1E7E
ENCODING 7806
SWIDTH 699 0
DWIDTH 12 0
BBX 12 15 0 -2
BITMAP
F070
6020
2020
2040
1040
10C0
0880
0880
0D00
0500
0500
0200
0200
0000
0600
ENDCHAR
STARTCHAR uni1E7F
ENCODING 7807
SWIDTH 545 0
DWIDTH 9 0
BBX 9 11 0 -2
BITMAP
F380
6100
2100
2200
1200
1600
1400
0C00
0800
0000
0C00
ENDCHAR
STARTCHAR Wgrave
ENCODING 7808
SWIDTH 925 0
DWIDTH 16 0
BBX 16 15 0 0
BITMAP
03C0
0000
F087
6182
2182
2184
21C4
1244
1248
1248
1428
0C30
0C30
0810
0810
ENDCHAR
STARTCHAR wgrave
ENCODING 7809
SWIDTH 795 0
DWIDTH 14 0
BBX 14 11 0 0
BITMAP
0780
0000
F11C
6308
2308
2298
2490
14D0
1860
1860
1020
ENDCHAR
STARTCHAR Wacute
ENCODING 7810
SWIDTH 925 0
DWIDTH 16 0
BBX 16 15 0 0
BITMAP
03C0
0000
F087
6182
2182
2184
21C4
1244
1248
1248
1428
0C30
0C30
0810
0810
ENDCHAR
STARTCHAR wacute
ENCODING 7811
SWIDTH 795 0
DWIDTH 14 0
BBX 14 11 0 0
BITMAP
0780
0000
F11C
6308
2308
2298
2490
14D0
1860
1860
1020
ENDCHAR
STARTCHAR Wdieresis
ENCODING 7812
SWIDTH 925 0
DWIDTH 16 0
BBX 16 15 0 0
BITMAP
06C0
0000
F087
6182
2182
2184
21C4
1244
1248
1248
1428
0C30
0C30
0810
0810
ENDCHAR
STARTCHAR wdieresis
ENCODING 7813
SWIDTH 795 0
DWIDTH 14 0
BBX 14 11 0 0
BITMAP
0D80
0000
F11C
6308
2308
2298
2490
14D0
1860
1860
1020
ENDCHAR
STARTCHAR uni1E86
ENCODING 7814
SWIDTH 925 0
DWIDTH 16 0
BBX 16 15 0 0
BITMAP
0180
0000
F087
6182
2182
2184
21C4
1244
1248
1248
1428
0C30
0C30
0810
0810
ENDCHAR
STARTCHAR uni1E87
ENCODING 7815
SWIDTH 795 0
DWIDTH 14 0
BBX 14 11 0 0
BITMAP
0300
0000
F11C
6308
2308
2298
2490
14D0
1860
1860
1020
ENDCHAR
STARTCHAR uni1E88
ENCODING 7816
SWIDTH 925 0
DWIDTH 16 0
BBX 16 15 0 -2
BITMAP
F087
6182
2182
2184
21C4
1244
1248
1248
1428
0C30
0C30
0810
0810
0000
0180
ENDCHAR
STARTCHAR uni1E89
ENCODING 7817
SWIDTH 795 0
DWIDTH 14 0
BBX 14 11 0 -2
BITMAP
F11C
6308
2308
2298
2490
14D0
1860
1860
1020
0000
0300
ENDCHAR
STARTCHAR uni1E8A
ENCODING 7818
SWIDTH 657 0
DWIDTH 11 0
BBX 11 15 0 0
BITMAP
0C00
0000
F8E0
3040
1080
1100
0B00
0E00
0C00
0A00
1300
3100
2080
40C0
E3E0
ENDCHAR
STARTCHAR uni1E8B
ENCODING 7819
SWIDTH 557 0
DWIDTH 9 0
BBX 10 11 0 0
BITMAP
0C00
0000
F1C0
6180
3300
1A00
0C00
1600
2300
4180
E3C0
ENDCHAR
STARTCHAR uni1E8C
ENCODING 7820
SWIDTH 657 0
DWIDTH 11 0
BBX 11 15 0 0
BITMAP
1B00
0000
F8E0
3040
1080
1100
0B00
0E00
0C00
0A00
1300
3100
2080
40C0
E3E0
ENDCHAR
STARTCHAR uni1E8D
ENCODING 7821
SWIDTH 557 0
DWIDTH 9 0
BBX 10 11 0 0
BITMAP
3600
0000
F1C0
6180
3300
1A00
0C00
1600
2300
4180
E3C0
ENDCHAR
STARTCHAR uni1E8E
ENCODING 7822
SWIDTH 678 0
DWIDTH 12 0
BBX 11 15 0 0
BITMAP
0C00
0000
F8E0
3040
3080
1080
0900
0A00
0600
0400
0400
0400
0400
0400
1F00
ENDCHAR
STARTCHAR uni1E8F
ENCODING 7823
SWIDTH 551 0
DWIDTH 9 0
BBX 9 14 0 -3
BITMAP
0C00
0000
F380
6100
2100
2300
1200
1200
1C00
0C00
0800
0800
1000
7000
ENDCHAR
STARTCHAR uni1E90
ENCODING 7824
SWIDTH 633 0
DWIDTH 11 0
BBX 8 15 1 0
BITMAP
7E
00
FF
82
86
04
0C
08
10
10
20
20
41
41
FF
ENDCHAR
STARTCHAR uni1E91
ENCODING 7825
SWIDTH 595 0
DWIDTH 10 0
BBX 8 11 1 0
BITMAP
7E
00
FF
86
04
08
10
30
20
41
FF
ENDCHAR
STARTCHAR uni1E92
ENCODING 7826
SWIDTH 633 0
DWIDTH 11 0
BBX 8 15 1 -2
BITMAP
FF
82
86
04
0C
08
10
10
20
20
41
41
FF
00
18
ENDCHAR
STARTCHAR uni1E93
ENCODING 7827
SWIDTH 595 0
DWIDTH 10 0
BBX 8 11 1 -2
BITMAP
FF
86
04
08
10
30
20
41
FF
00
18
ENDCHAR
STARTCHAR uni1E94
ENCODING 7828
SWIDTH 633 0
DWIDTH 11 0
BBX 8 15 1 -2
BITMAP
FF
82
86
04
0C
08
10
10
20
20
41
41
FF
00
3E
ENDCHAR
STARTCHAR uni1E95
ENCODING 7829
SWIDTH 595 0
DWIDTH 10 0
BBX 8 11 1 -2
BITMAP
FF
86
04
08
10
30
20
41
FF
00
7C
ENDCHAR
STARTCHAR uni1E96
ENCODING 7830
SWIDTH 633 0
DWIDTH 11 0
BBX 11 15 0 -2
BITMAP
E000
2000
2000
2000
2F00
3080
2080
2080
2080
2080
2080
2080
FBE0
0000
1F00
ENDCHAR
STARTCHAR uni1E97
ENCODING 7831
SWIDTH 392 0
DWIDTH 7 0
BBX 5 14 1 0
BITMAP
D8
00
40
40
40
F8
40
40
40
40
40
40
40
38
ENDCHAR
STARTCHAR uni1E98
ENCODING 7832
SWIDTH 795 0
DWIDTH 14 0
BBX 14 12 0 0
BITMAP
0700
0700
0000
F11C
6308
2308
2298
2490
14D0
1860
1860
1020
ENDCHAR
STARTCHAR uni1E99
ENCODING 7833
SWIDTH 551 0
DWIDTH 9 0
BBX 9 15 0 -3
BITMAP
1C00
1C00
0000
F380
6100
2100
2300
1200
1200
1C00
0C00
0800
0800
1000
7000
ENDCHAR
STARTCHAR uni1EA0
ENCODING 7840
SWIDTH 744 0
DWIDTH 13 0
BBX 13 15 0 -2
BITMAP
0200
0600
0600
0500
0900
0880
1080
1080
3FC0
2040
2020
4020
E0F8
0000
0300
ENDCHAR
STARTCHAR uni1EA1
ENCODING 7841
SWIDTH 543 0
DWIDTH 9 0
BBX 8 11 1 -2
BITMAP
7C
86
82
02
3E
C2
82
C2
7F
00
18
ENDCHAR
STARTCHAR uni1EA4
ENCODING 7844
SWIDTH 744 0
DWIDTH 13 0
BBX 13 17 0 0
BITMAP
0F00
0000
1F80
0000
0200
0600
0600
0500
0900
0880
1080
1080
3FC0
2040
2020
4020
E0F8
ENDCHAR
STARTCHAR uni1EA5
ENCODING 7845
SWIDTH 543 0
DWIDTH 9 0
BBX 8 13 1 0
BITMAP
3C
00
7E
00
7C
86
82
02
3E
C2
82
C2
7F
ENDCHAR
STARTCHAR uni1EA6
ENCODING 7846
SWIDTH 744 0
DWIDTH 13 0
BBX 13 17 0 0
BITMAP
0F00
0000
1F80
0000
0200
0600
0600
0500
0900
0880
1080
1080
3FC0
2040
2020
4020
E0F8
ENDCHAR
STARTCHAR uni1EA7
ENCODING 7847
SWIDTH 543 0
DWIDTH 9 0
BBX 8 13 1 0
BITMAP
3C
00
7E
00
7C
86
82
02
3E
C2
82
C2
7F
ENDCHAR
STARTCHAR uni1EAA
ENCODING 7850
SWIDTH 744 0
DWIDTH 13 0
BBX 13 17 0 0
BITMAP
1F80
0000
1F80
0000
0200
0600
0600
0500
0900
0880
1080
1080
3FC0
2040
2020
4020
E0F8
ENDCHAR
STARTCHAR uni1EAB
ENCODING 7851
SWIDTH 543 0
DWIDTH 9 0
BBX 8 13 1 0
BITMAP
7E
00
7E
00
7C
86
82
02
3E
C2
82
C2
7F
ENDCHAR
STARTCHAR uni1EAC
ENCODING 7852
SWIDTH 744 0
DWIDTH 13 0
BBX 13 17 0 -2
BITMAP
1F80
0000
0200
0600
0600
0500
0900
0880
1080
1080
3FC0
2040
2020
4020
E0F8
0000
0300
ENDCHAR
STARTCHAR uni1EAD
ENCODING 7853
SWIDTH 543 0
DWIDTH 9 0
BBX 8 13 1 -2
BITMAP
7E
00
7C
86
82
02
3E
C2
82
C2
7F
00
18
ENDCHAR
STARTCHAR uni1EAE
ENCODING 7854
SWIDTH 744 0
DWIDTH 13 0
BBX 13 17 0 0
BITMAP
0F00
0000
1F80
0000
0200
0600
0600
0500
0900
0880
1080
1080
3FC0
2040
2020
4020
E0F8
ENDCHAR
STARTCHAR uni1EAF
ENCODING 7855
SWIDTH 543 0
DWIDTH 9 0
BBX 8 13 1 0
BITMAP
3C
00
7E
00
7C
86
82
02
3E
C2
82
C2
7F
ENDCHAR
STARTCHAR uni1EB0
ENCODING 7856
SWIDTH 744 0
DWIDTH 13 0
BBX 13 17 0 0
BITMAP
0F00
0000
1F80
0000
0200
0600
0600
0500
0900
0880
1080
1080
3FC0
2040
2020
4020
E0F8
ENDCHAR
STARTCHAR uni1EB1
ENCODING 7857
SWIDTH 543 0
DWIDTH 9 0
BBX 8 13 1 0
BITMAP
3C
00
7E
00
7C
86
82
02
3E
C2
82
C2
7F
ENDCHAR
STARTCHAR uni1EB4
ENCODING 7860
SWIDTH 744 0
DWIDTH 13 0
BBX 13 17 0 0
BITMAP
1F80
0000
1F80
0000
0200
0600
0600
0500
0900
0880
1080
1080
3FC0
2040
2020
4020
E0F8
ENDCHAR
STARTCHAR uni1EB5
ENCODING 7861
SWIDTH 543 0
DWIDTH 9 0
BBX 8 13 1 0
BITMAP
7E
00
7E
00
7C
86
82
02
3E
C2
82
C2
7F
ENDCHAR
STARTCHAR uni1EB6
ENCODING 7862
SWIDTH 744 0
DWIDTH 13 0
BBX 13 17 0 -2
BITMAP
1F80
0000
0200
0600
0600
0500
0900
0880
1080
1080
3FC0
2040
2020
4020
E0F8
0000
0300
ENDCHAR
STARTCHAR uni1EB7
ENCODING 7863
SWIDTH 543 0
DWIDTH 9 0
BBX 8 13 1 -2
BITMAP
7E
00
7C
86
82
02
3E
C2
82
C2
7F
00
18
ENDCHAR
STARTCHAR uni1EB8
ENCODING 7864
SWIDTH 566 0
DWIDTH 10 0
BBX 10 15 0 -2
BITMAP
FFC0
2040
2000
2000
2000
2100
3F00
2100
2000
2000
2040
2040
FFC0
0000
0C00
ENDCHAR
STARTCHAR uni1EB9
ENCODING 7865
SWIDTH 530 0
DWIDTH 9 0
BBX 7 11 1 -2
BITMAP
38
44
82
82
FE
80
80
42
3C
00
18
ENDCHAR
STARTCHAR uni1EBC
ENCODING 7868
SWIDTH 566 0
DWIDTH 10 0
BBX 10 15 0 0
BITMAP
3F00
0000
FFC0
2040
2000
2000
2000
2100
3F00
2100
2000
2000
2040
2040
FFC0
ENDCHAR
STARTCHAR uni1EBD
ENCODING 7869
SWIDTH 530 0
DWIDTH 9 0
BBX 7 11 1 0
BITMAP
7E
00
38
44
82
82
FE
80
80
42
3C
ENDCHAR
STARTCHAR uni1EBE
ENCODING 7870
SWIDTH 566 0
DWIDTH 10 0
BBX 10 17 0 0
BITMAP
1E00
0000
3F00
0000
FFC0
2040
2000
2000
2000
2100
3F00
2100
2000
2000
2040
2040
FFC0
ENDCHAR
STARTCHAR uni1EBF
ENCODING 7871
SWIDTH 530 0
DWIDTH 9 0
BBX 7 13 1 0
BITMAP
3C
00
7E
00
38
44
82
82
FE
80
80
42
3C
ENDCHAR
STARTCHAR uni1EC0
ENCODING 7872
SWIDTH 566 0
DWIDTH 10 0
BBX 10 17 0 0
BITMAP
1E00
0000
3F00
0000
FFC0
2040
2000
2000
2000
2100
3F00
2100
2000
2000
2040
2040
FFC0
ENDCHAR
STARTCHAR uni1EC1
ENCODING 7873
SWIDTH 530 0
DWIDTH 9 0
BBX 7 13 1 0
BITMAP
3C
00
7E
00
38
44
82
82
FE
80
80
42
3C
ENDCHAR
STARTCHAR uni1EC4
ENCODING 7876
SWIDTH 566 0
DWIDTH 10 0
BBX 10 17 0 0
BITMAP
3F00
0000
3F00
0000
FFC0
2040
2000
2000
2000
2100
3F00
2100
2000
2000
2040
2040
FFC0
ENDCHAR
STARTCHAR uni1EC5
ENCODING 7877
SWIDTH 530 0
DWIDTH 9 0
BBX 7 13 1 0
BITMAP
7E
00
7E
00
38
44
82
82
FE
80
80
42
3C
ENDCHAR
STARTCHAR uni1EC6
ENCODING 7878
SWIDTH 566 0
DWIDTH 10 0
BBX 10 17 0 -2
BITMAP
3F00
0000
FFC0
2040
2000
2000
2000
2100
3F00
2100
2000
2000
2040
2040
FFC0
0000
0C00
ENDCHAR
STARTCHAR uni1EC7
ENCODING 7879
SWIDTH 530 0
DWIDTH 9 0
BBX 7 13 1 -2
BITMAP
7E
00
38
44
82
82
FE
80
80
42
3C
00
18
ENDCHAR
STARTCHAR uni1ECA
ENCODING 7882
SWIDTH 325 0
DWIDTH 6 0
BBX 5 15 0 -2
BITMAP
F8
20
20
20
20
20
20
20
20
20
20
20
F8
00
30
ENDCHAR
STARTCHAR uni1ECB
ENCODING 7883
SWIDTH 307 0
DWIDTH 5 0
BBX 5 15 0 -2
BITMAP
20
00
00
00
E0
20
20
20
20
20
20
20
F8
00
30
ENDCHAR
STARTCHAR uni1ECC
ENCODING 7884
SWIDTH 777 0
DWIDTH 13 0
BBX 11 15 1 -2
BITMAP
1F00
2080
4040
C060
8020
8020
8020
8020
8020
C060
4040
2080
1F00
0000
0600
ENDCHAR
STARTCHAR uni1ECD
ENCODING 7885
SWIDTH 602 0
DWIDTH 10 0
BBX 9 11 1 -2
BITMAP
3E00
6300
C180
8080
8080
8080
C180
6300
3E00
0000
0C00
ENDCHAR
STARTCHAR uni1ED0
ENCODING 7888
SWIDTH 777 0
DWIDTH 13 0
BBX 11 17 1 0
BITMAP
1E00
0000
3F00
0000
1F00
2080
4040
C060
8020
8020
8020
8020
8020
C060
4040
2080
1F00
ENDCHAR
STARTCHAR uni1ED1
ENCODING 7889
SWIDTH 602 0
DWIDTH 10 0
BBX 9 13 1 0
BITMAP
3C00
0000
7E00
0000
3E00
6300
C180
8080
8080
8080
C180
6300
3E00
ENDCHAR
STARTCHAR uni1ED2
ENCODING 7890
SWIDTH 777 0
DWIDTH 13 0
BBX 11 17 1 0
BITMAP
1E00
0000
3F00
0000
1F00
2080
4040
C060
8020
8020
8020
8020
8020
C060
4040
2080
1F00
ENDCHAR
STARTCHAR uni1ED3
ENCODING 7891
SWIDTH 602 0
DWIDTH 10 0
BBX 9 13 1 0
BITMAP
3C00
0000
7E00
0000
3E00
6300
C180
8080
8080
8080
C180
6300
3E00
ENDCHAR
STARTCHAR uni1ED6
ENCODING 7894
SWIDTH 777 0
DWIDTH 13 0
BBX 11 17 1 0
BITMAP
3F00
0000
3F00
0000
1F00
2080
4040
C060
8020
8020
8020
8020
8020
C060
4040
2080
1F00
ENDCHAR
STARTCHAR uni1ED7
ENCODING 7895
SWIDTH 602 0
DWIDTH 10 0
BBX 9 13 1 0
BITMAP
7E00
0000
7E00
0000
3E00
6300
C180
8080
8080
8080
C180
6300
3E00
ENDCHAR
STARTCHAR uni1ED8
ENCODING 7896
SWIDTH 777 0
DWIDTH 13 0
BBX 11 17 1 -2
BITMAP
1F80
0000
1F00
2080
4040
C060
8020
8020
8020
8020
8020
C060
4040
2080
1F00
0000
0600
ENDCHAR
STARTCHAR uni1ED9
ENCODING 7897
SWIDTH 602 0
DWIDTH 10 0
BBX 9 13 1 -2
BITMAP
3F00
0000
3E00
6300
C180
8080
8080
8080
C180
6300
3E00
0000
0C00
ENDCHAR
STARTCHAR uni1EDA
ENCODING 7898
SWIDTH 777 0
DWIDTH 13 0
BBX 12 15 1 0
BITMAP
0780
0000
1F30
20B0
4050
C070
8020
8020
8020
8020
8020
C060
4040
2080
1F00
ENDCHAR
STARTCHAR uni1EDB
ENCODING 7899
SWIDTH 602 0
DWIDTH 10 0
BBX 10 11 1 0
BITMAP
0F00
0000
3EC0
63C0
C1C0
80C0
8080
8080
C180
6300
3E00
ENDCHAR
STARTCHAR uni1EDC
ENCODING 7900
SWIDTH 777 0
DWIDTH 13 0
BBX 12 15 1 0
BITMAP
0780
0000
1F30
20B0
4050
C070
8020
8020
8020
8020
8020
C060
4040
2080
1F00
ENDCHAR
STARTCHAR uni1EDD
ENCODING 7901
SWIDTH 602 0
DWIDTH 10 0
BBX 10 11 1 0
BITMAP
0F00
0000
3EC0
63C0
C1C0
80C0
8080
8080
C180
6300
3E00
ENDCHAR
STARTCHAR uni1EE0
ENCODING 7904
SWIDTH 777 0
DWIDTH 13 0
BBX 12 15 1 0
BITMAP
0FC0
0000
1F30
20B0
4050
C070
8020
8020
8020
8020
8020
C060
4040
2080
1F00
ENDCHAR
STARTCHAR uni1EE1
ENCODING 7905
SWIDTH 602 0
DWIDTH 10 0
BBX 10 11 1 0
BITMAP
1F80
0000
3EC0
63C0
C1C0
80C0
8080
8080
C180
6300
3E00
ENDCHAR
STARTCHAR uni1EE2
ENCODING 7906
SWIDTH 777 0
DWIDTH 13 0
BBX 12 15 1 -2
BITMAP
1F30
20B0
4050
C070
8020
8020
8020
8020
8020
C060
4040
2080
1F00
0000
0600
ENDCHAR
STARTCHAR uni1EE3
ENCODING 7907
SWIDTH 602 0
DWIDTH 10 0
BBX 10 11 1 -2
BITMAP
3EC0
63C0
C1C0
80C0
8080
8080
C180
6300
3E00
0000
0C00
ENDCHAR
STARTCHAR uni1EE4
ENCODING 7908
SWIDTH 719 0
DWIDTH 12 0
BBX 13 15 0 -2
BITMAP
F8F8
2020
2020
2020
2020
2020
2020
2020
2020
2020
2020
1040
0F80
0000
0300
ENDCHAR
STARTCHAR uni1EE5
ENCODING 7909
SWIDTH 633 0
DWIDTH 11 0
BBX 11 11 0 -2
BITMAP
E380
2080
2080
2080
2080
2080
2080
2180
1EE0
0000
0600
ENDCHAR
STARTCHAR uni1EE8
ENCODING 7912
SWIDTH 719 0
DWIDTH 12 0
BBX 14 15 0 0
BITMAP
03C0
0000
F8FC
202C
2024
2024
2028
2020
2020
2020
2020
2020
2020
1040
0F80
ENDCHAR
STARTCHAR uni1EE9
ENCODING 7913
SWIDTH 633 0
DWIDTH 11 0
BBX 12 11 0 0
BITMAP
0780
0000
E3B0
20B0
2090
2090
20A0
2080
2080
2180
1EE0
ENDCHAR
STARTCHAR uni1EEA
ENCODING 7914
SWIDTH 719 0
DWIDTH 12 0
BBX 14 15 0 0
BITMAP
03C0
0000
F8FC
202C
2024
2024
2028
2020
2020
2020
2020
2020
2020
1040
0F80
ENDCHAR
STARTCHAR uni1EEB
ENCODING 7915
SWIDTH 633 0
DWIDTH 11 0
BBX 12 11 0 0
BITMAP
0780
0000
E3B0
20B0
2090
2090
20A0
2080
2080
2180
1EE0
ENDCHAR
STARTCHAR uni1EEE
ENCODING 7918
SWIDTH 719 0
DWIDTH 12 0
BBX 14 15 0 0
BITMAP
07E0
0000
F8FC
202C
2024
2024
2028
2020
2020
2020
2020
2020
2020
1040
0F80
ENDCHAR
STARTCHAR uni1EEF
ENCODING 7919
SWIDTH 633 0
DWIDTH 11 0
BBX 12 11 0 0
BITMAP
0FC0
0000
E3B0
20B0
2090
2090
20A0
2080
2080
2180
1EE0
ENDCHAR
STARTCHAR uni1EF0
ENCODING 7920
SWIDTH 719 0
DWIDTH 12 0
BBX 14 15 0 -2
BITMAP
F8FC
202C
2024
2024
2028
2020
2020
2020
2020
2020
2020
1040
0F80
0000
0300
ENDCHAR
STARTCHAR uni1EF1
ENCODING 7921
SWIDTH 633 0
DWIDTH 11 0
BBX 12 11 0 -2
BITMAP
E3B0
20B0
2090
2090
20A0
2080
2080
2180
1EE0
0000
0600
ENDCHAR
STARTCHAR Ygrave
ENCODING 7922
SWIDTH 678 0
DWIDTH 12 0
BBX 11 15 0 0
BITMAP
1E00
0000
F8E0
3040
3080
1080
0900
0A00
0600
0400
0400
0400
0400
0400
1F00
ENDCHAR
STARTCHAR ygrave
ENCODING 7923
SWIDTH 551 0
DWIDTH 9 0
BBX 9 14 0 -3
BITMAP
1E00
0000
F380
6100
2100
2300
1200
1200
1C00
0C00
0800
0800
1000
7000
ENDCHAR
STARTCHAR uni1EF4
ENCODING 7924
SWIDTH 678 0
DWIDTH 12 0
BBX 11 15 0 -2
BITMAP
F8E0
3040
3080
1080
0900
0A00
0600
0400
0400
0400
0400
0400
1F00
0000
0600
ENDCHAR
STARTCHAR uni1EF5
ENCODING 7925
SWIDTH 551 0
DWIDTH 9 0
BBX 9 14 0 -5
BITMAP
F380
6100
2100
2300
1200
1200
1C00
0C00
0800
0800
1000
7000
0000
1800
ENDCHAR
STARTCHAR uni1EF8
ENCODING 7928
SWIDTH 678 0
DWIDTH 12 0
BBX 11 15 0 0
BITMAP
3F00
0000
F8E0
3040
3080
1080
0900
0A00
0600
0400
0400
0400
0400
0400
1F00
ENDCHAR
STARTCHAR uni1EF9
ENCODING 7929
SWIDTH 551 0
DWIDTH 9 0
BBX 9 14 0 -3
BITMAP
3F00
0000
F380
6100
2100
2300
1200
1200
1C00
0C00
0800
0800
1000
7000
ENDCHAR
STARTCHAR uni2000
ENCODING 8192
SWIDTH 500 0
DWIDTH 8 0
BBX 1 1 0 0
BITMAP
00
ENDCHAR
STARTCHAR uni2001
ENCODING 8193
SWIDTH 1000 0
DWIDTH 17 0
BBX 1 1 0 0
BITMAP
00
ENDCHAR
STARTCHAR uni2002
ENCODING 8194
SWIDTH 500 0
DWIDTH 8 0
BBX 1 1 0 0
BITMAP
00
ENDCHAR
STARTCHAR uni2003
ENCODING 8195
SWIDTH 1000 0
DWIDTH 17 0
BBX 1 1 0 0
BITMAP
00
ENDCHAR
STARTCHAR uni2004
ENCODING 8196
SWIDTH 333 0
DWIDTH 6 0
BBX 1 1 0 0
BITMAP
00
ENDCHAR
STARTCHAR uni2005
ENCODING 8197
SWIDTH 250 0
DWIDTH 4 0
BBX 1 1 0 0
BITMAP
00
ENDCHAR
STARTCHAR uni2006
ENCODING 8198
SWIDTH 167 0
DWIDTH 3 0
BBX 1 1 0 0
BITMAP
00
ENDCHAR
STARTCHAR uni2007
ENCODING 8199
SWIDTH 608 0
DWIDTH 10 0
BBX 1 1 0 0
BITMAP
00
ENDCHAR
STARTCHAR uni2008
ENCODING 8200
SWIDTH 265 0
DWIDTH 4 0
BBX 1 1 0 0
BITMAP
00
ENDCHAR
STARTCHAR uni2009
ENCODING 8201
SWIDTH 200 0
DWIDTH 3 0
BBX 1 1 0 0
BITMAP
00
ENDCHAR
STARTCHAR uni200A
ENCODING 8202
SWIDTH 100 0
DWIDTH 2 0
BBX 1 1 0 0
BITMAP
00
ENDCHAR
STARTCHAR uni200B
ENCODING 8203
SWIDTH 0 0
DWIDTH 0 0
BBX 1 1 0 0
BITMAP
00
ENDCHAR
STARTCHAR uni2010
ENCODING 8208
SWIDTH 325 0
DWIDTH 6 0
BBX 4 1 1 5
BITMAP
F0
ENDCHAR
STARTCHAR uni2011
ENCODING 8209
SWIDTH 325 0
DWIDTH 6 0
BBX 4 1 1 5
BITMAP
F0
ENDCHAR
STARTCHAR figuredash
ENCODING 8210
SWIDTH 500 0
DWIDTH 8 0
BBX 7 1 1 5
BITMAP
FE
ENDCHAR
STARTCHAR endash
ENCODING 8211
SWIDTH 500 0
DWIDTH 8 0
BBX 7 1 1 5
BITMAP
FE
ENDCHAR
STARTCHAR emdash
ENCODING 8212
SWIDTH 1000 0
DWIDTH 17 0
BBX 15 1 1 5
BITMAP
FFFE
ENDCHAR
STARTCHAR afii00208
ENCODING 8213
SWIDTH 1000 0
DWIDTH 17 0
BBX 15 1 1 5
BITMAP
FFFE
ENDCHAR
STARTCHAR quoteleft
ENCODING 8216
SWIDTH 265 0
DWIDTH 4 0
BBX 2 5 1 8
BITMAP
40
80
80
C0
C0
ENDCHAR
STARTCHAR quoteright
ENCODING 8217
SWIDTH 265 0
DWIDTH 4 0
BBX 2 5 1 8
BITMAP
C0
C0
40
40
80
ENDCHAR
STARTCHAR quotesinglbase
ENCODING 8218
SWIDTH 265 0
DWIDTH 4 0
BBX 2 5 1 -3
BITMAP
C0
C0
40
40
80
ENDCHAR
STARTCHAR quotereversed
ENCODING 8219
SWIDTH 265 0
DWIDTH 4 0
BBX 2 5 1 8
BITMAP
C0
C0
80
80
40
ENDCHAR
STARTCHAR quotedblleft
ENCODING 8220
SWIDTH 458 0
DWIDTH 8 0
BBX 5 5 1 8
BITMAP
88
90
90
90
98
ENDCHAR
STARTCHAR quotedblright
ENCODING 8221
SWIDTH 458 0
DWIDTH 8 0
BBX 5 5 1 8
BITMAP
88
88
88
88
88
ENDCHAR
STARTCHAR quotedblbase
ENCODING 8222
SWIDTH 458 0
DWIDTH 8 0
BBX 5 5 1 -3
BITMAP
88
88
88
88
88
ENDCHAR
STARTCHAR uni201F
ENCODING 8223
SWIDTH 458 0
DWIDTH 8 0
BBX 5 5 1 8
BITMAP
88
88
88
88
88
ENDCHAR
STARTCHAR dagger
ENCODING 8224
SWIDTH 608 0
DWIDTH 10 0
BBX 7 16 2 -3
BITMAP
10
10
10
10
10
FE
10
10
10
10
10
10
10
10
10
10
ENDCHAR
STARTCHAR daggerdbl
ENCODING 8225
SWIDTH 608 0
DWIDTH 10 0
BBX 7 16 2 -3
BITMAP
10
10
10
10
10
FE
10
10
10
10
10
FE
10
10
10
10
ENDCHAR
STARTCHAR bullet
ENCODING 8226
SWIDTH 608 0
DWIDTH 10 0
BBX 5 4 3 4
BITMAP
70
F8
F8
70
ENDCHAR
STARTCHAR ellipsis
ENCODING 8230
SWIDTH 1000 0
DWIDTH 17 0
BBX 11 1 3 0
BITMAP
8420
ENDCHAR
STARTCHAR perthousand
ENCODING 8240
SWIDTH 1024 0
DWIDTH 17 0
BBX 17 13 0 0
BITMAP
706000
C84000
888000
890000
8B0000
720000
05C700
0B2C80
1A2880
122880
222880
422880
C1C700
ENDCHAR
STARTCHAR guilsinglleft
ENCODING 8249
SWIDTH 339 0
DWIDTH 6 0
BBX 4 7 1 1
BITMAP
10
20
40
C0
40
20
10
ENDCHAR
STARTCHAR guilsinglright
ENCODING 8250
SWIDTH 339 0
DWIDTH 6 0
BBX 4 7 1 1
BITMAP
80
40
60
30
20
40
80
ENDCHAR
STARTCHAR fraction
ENCODING 8260
SWIDTH 36 0
DWIDTH 1 0
BBX 10 13 -4 0
BITMAP
00C0
0080
0100
0300
0200
0400
0C00
0800
1000
3000
2000
4000
8000
ENDCHAR
STARTCHAR oneinferior
ENCODING 8321
SWIDTH 365 0
DWIDTH 6 0
BBX 3 8 -10 -4
BITMAP
C0
40
40
40
40
40
40
E0
ENDCHAR
STARTCHAR twoinferior
ENCODING 8322
SWIDTH 365 0
DWIDTH 6 0
BBX 4 8 -10 -4
BITMAP
E0
90
10
10
20
40
80
F0
ENDCHAR
STARTCHAR threeinferior
ENCODING 8323
SWIDTH 365 0
DWIDTH 6 0
BBX 4 8 -10 -4
BITMAP
E0
90
10
60
30
10
90
E0
ENDCHAR
STARTCHAR uni20A5
ENCODING 8357
SWIDTH 946 0
DWIDTH 16 0
BBX 17 16 0 -3
BITMAP
000800
001000
001000
002000
EF3C00
30C200
20C200
208200
208200
218200
218200
228200
FBEF80
040000
040000
080000
ENDCHAR
STARTCHAR uni20A6
ENCODING 8358
SWIDTH 751 0
DWIDTH 13 0
BBX 13 13 0 0
BITMAP
E0F8
3020
3020
2820
3FF0
2620
2220
3FF0
21A0
20A0
2060
2020
F820
ENDCHAR
STARTCHAR uni20A9
ENCODING 8361
SWIDTH 925 0
DWIDTH 16 0
BBX 16 13 0 0
BITMAP
F087
6182
2182
2184
3FFC
1244
1248
1FF8
1428
0C30
0C30
0810
0810
ENDCHAR
STARTCHAR Euro
ENCODING 8364
SWIDTH 695 0
DWIDTH 12 0
BBX 13 13 -2 0
BITMAP
03F8
0618
0808
0800
FFC0
1000
1000
FFC0
1000
0800
0800
0608
03F0
ENDCHAR
STARTCHAR uni20AD
ENCODING 8365
SWIDTH 708 0
DWIDTH 12 0
BBX 12 13 0 0
BITMAP
F9E0
20C0
2100
2200
2400
2800
FFF0
2C00
2600
2300
2180
20C0
F3F0
ENDCHAR
STARTCHAR uni2103
ENCODING 8451
SWIDTH 941 0
DWIDTH 16 0
BBX 14 13 1 0
BITMAP
41FC
A30C
A404
4400
0800
0800
0800
0800
0800
0400
0400
0304
01F8
ENDCHAR
STARTCHAR uni2109
ENCODING 8457
SWIDTH 794 0
DWIDTH 13 0
BBX 12 13 1 0
BITMAP
5FF0
A410
A400
4400
0400
0420
07E0
0420
0400
0400
0400
0400
1F00
ENDCHAR
STARTCHAR trademark
ENCODING 8482
SWIDTH 904 0
DWIDTH 15 0
BBX 12 7 2 6
BITMAP
FF70
2360
2360
22E0
22A0
22A0
7630
ENDCHAR
STARTCHAR uni212A
ENCODING 8490
SWIDTH 708 0
DWIDTH 12 0
BBX 12 13 0 0
BITMAP
F9E0
20C0
2100
2200
2400
2800
3800
2C00
2600
2300
2180
20C0
F3F0
ENDCHAR
STARTCHAR uni212B
ENCODING 8491
SWIDTH 744 0
DWIDTH 13 0
BBX 13 16 0 0
BITMAP
0700
0700
0000
0200
0600
0600
0500
0900
0880
1080
1080
3FC0
2040
2020
4020
E0F8
ENDCHAR
STARTCHAR uni2132
ENCODING 8498
SWIDTH 548 0
DWIDTH 9 0
BBX 9 13 0 0
BITMAP
0F80
0200
0200
0200
0200
4200
7E00
4200
0200
0200
0200
8200
FF80
ENDCHAR
STARTCHAR universal
ENCODING 8704
SWIDTH 744 0
DWIDTH 13 0
BBX 13 13 0 0
BITMAP
E0F8
4020
2020
2040
3FC0
1080
1080
0880
0900
0500
0600
0600
0200
ENDCHAR
STARTCHAR existential
ENCODING 8707
SWIDTH 566 0
DWIDTH 10 0
BBX 10 13 0 0
BITMAP
FFC0
8100
0100
0100
0100
2100
3F00
2100
0100
0100
8100
8100
FFC0
ENDCHAR
STARTCHAR uni2204
ENCODING 8708
SWIDTH 566 0
DWIDTH 10 0
BBX 10 16 0 -1
BITMAP
0040
0080
FFC0
8100
0100
0300
0300
2500
3F00
2900
0900
1100
9100
A100
FFC0
4000
ENDCHAR
STARTCHAR minus
ENCODING 8722
SWIDTH 608 0
DWIDTH 10 0
BBX 10 1 0 5
BITMAP
FFC0
ENDCHAR
STARTCHAR fraction
ENCODING 8725
SWIDTH 36 0
DWIDTH 1 0
BBX 10 13 -4 0
BITMAP
00C0
0080
0100
0300
0200
0400
0C00
0800
1000
3000
2000
4000
8000
ENDCHAR
STARTCHAR periodcentered
ENCODING 8729
SWIDTH 608 0
DWIDTH 10 0
BBX 2 1 4 5
BITMAP
C0
ENDCHAR
STARTCHAR uni2236
ENCODING 8758
SWIDTH 265 0
DWIDTH 4 0
BBX 1 9 2 0
BITMAP
80
00
00
00
00
00
00
00
80
ENDCHAR
STARTCHAR uni2259
ENCODING 8793
SWIDTH 608 0
DWIDTH 10 0
BBX 10 6 0 3
BITMAP
3F00
0000
FFC0
0000
0000
FFC0
ENDCHAR
STARTCHAR uni225A
ENCODING 8794
SWIDTH 608 0
DWIDTH 10 0
BBX 10 6 0 3
BITMAP
3F00
0000
FFC0
0000
0000
FFC0
ENDCHAR
STARTCHAR notequal
ENCODING 8800
SWIDTH 608 0
DWIDTH 10 0
BBX 10 16 0 -3
BITMAP
0040
0080
0080
0100
0100
0200
FFC0
0400
0400
FFC0
0800
1000
1000
2000
2000
4000
ENDCHAR
STARTCHAR equivalence
ENCODING 8801
SWIDTH 608 0
DWIDTH 10 0
BBX 10 5 0 3
BITMAP
FFC0
0000
FFC0
0000
FFC0
ENDCHAR
STARTCHAR uni2262
ENCODING 8802
SWIDTH 608 0
DWIDTH 10 0
BBX 10 16 0 -2
BITMAP
0040
0080
0080
0100
0100
0200
FFC0
0400
FFC0
0800
FFC0
1000
1000
2000
2000
4000
ENDCHAR
STARTCHAR lessequal
ENCODING 8804
SWIDTH 608 0
DWIDTH 10 0
BBX 10 13 0 -2
BITMAP
0040
0180
0600
0C00
3000
C000
3000
0C00
0700
0180
0040
0000
FFC0
ENDCHAR
STARTCHAR greaterequal
ENCODING 8805
SWIDTH 608 0
DWIDTH 10 0
BBX 10 13 0 -2
BITMAP
8000
6000
3800
0C00
0300
00C0
0300
0C00
1800
6000
8000
0000
FFC0
ENDCHAR
STARTCHAR uni226E
ENCODING 8814
SWIDTH 608 0
DWIDTH 10 0
BBX 10 16 0 -2
BITMAP
0040
0080
0080
0140
0180
0600
0E00
3400
C400
3800
0C00
1700
1180
2040
2000
4000
ENDCHAR
STARTCHAR uni226F
ENCODING 8815
SWIDTH 608 0
DWIDTH 10 0
BBX 10 16 0 -2
BITMAP
0040
0080
0080
8100
6100
3A00
0E00
0700
04C0
0B00
0C00
1800
7000
A000
2000
4000
ENDCHAR
STARTCHAR uni2270
ENCODING 8816
SWIDTH 608 0
DWIDTH 10 0
BBX 10 16 0 -3
BITMAP
0040
0080
00C0
0180
0700
0E00
3200
C400
3400
0C00
0F00
1180
1040
2000
FFC0
4000
ENDCHAR
STARTCHAR uni2271
ENCODING 8817
SWIDTH 608 0
DWIDTH 10 0
BBX 10 16 0 -3
BITMAP
0040
0080
8080
6100
3900
0E00
0300
04C0
0700
0C00
1800
7000
9000
2000
FFC0
4000
ENDCHAR
STARTCHAR fi
ENCODING -1
SWIDTH 657 0
DWIDTH 11 0
BBX 12 13 0 0
BITMAP
1E40
2200
2200
2000
FFC0
2040
2040
2040
2040
2040
2040
2040
F9F0
ENDCHAR
STARTCHAR fl
ENCODING -1
SWIDTH 663 0
DWIDTH 11 0
BBX 11 13 0 0
BITMAP
1F80
2180
2080
2080
FC80
2080
2080
2080
2080
2080
2080
2080
FBE0
ENDCHAR
ENDFONT
